<?xml version="1.0" encoding="UTF-8"?><svg width="88" height="88"  xmlns="http://www.w3.org/2000/svg" viewBox="0 0 88 88.0118"><g id="c"><path d="m44.0002,0c12.1165,0,23.1183,4.9443,31.0896,12.9126,7.9709,7.9719,12.9103,18.9753,12.9103,31.0933s-4.9436,23.1213-12.9103,31.0933c-7.9712,7.972-18.9731,12.9126-31.0896,12.9126s-23.1182-4.9443-31.0892-12.9126C4.94,67.1272,0,56.1276,0,44.0059S4.9437,20.8846,12.9109,12.9126C20.8819,4.9406,31.8838,0,44.0002,0Zm0,.5371c-11.9693,0-22.835,4.8818-30.7103,12.7581C5.4145,21.1716.5334,32.0387.5334,44.0096s4.8812,22.838,12.7565,30.7106c7.8753,7.8726,18.7411,12.7581,30.7103,12.7581s22.8351-4.8818,30.7105-12.7581c7.8711-7.8726,12.756-18.7398,12.756-30.7106s-4.8807-22.838-12.756-30.7143C66.8353,5.4189,55.9694.5371,44.0002.5371Z" style="fill:#2b6caf; stroke-width:0px;"/><path d="m44.0002,14.2002c8.2064,0,15.6587,3.3477,21.0585,8.7482,5.3995,5.4005,8.7472,12.8501,8.7472,21.0612s-3.3477,15.6607-8.7472,21.0612c-5.3961,5.3968-12.8484,8.7445-21.0585,8.7445s-15.6586-3.3477-21.0584-8.7445c-5.3998-5.4005-8.7471-12.8501-8.7471-21.0612s3.3473-15.6607,8.7471-21.0612c5.3961-5.3968,12.8484-8.7482,21.0584-8.7482Zm0,.5371c-8.0592,0-15.3754,3.2888-20.6759,8.59s-8.5889,12.622-8.5889,20.6823,3.2884,15.3774,8.5889,20.6786,12.6167,8.59,20.6759,8.59,15.3754-3.2888,20.6759-8.59c5.3007-5.3012,8.5889-12.6183,8.5889-20.6786s-3.2882-15.3774-8.5889-20.6823c-5.3005-5.3012-12.6167-8.59-20.6759-8.59Z" style="fill:#2b6caf; stroke-width:0px;"/><path d="m37.5778,37.465h-7.0955c-6.2016-1.6849-5.8154-12.5558,1.5008-12.5558h10.5237l1.3683-4.1129,1.681,4.1129h11.057c6.6468,1.2913,7.1949,10.7017.2833,12.5558h-6.4849l2.9095,9.9292,7.5369-.2833c6.7791,2.2146,6.3083,12.4638-.2796,12.9052l-15.1657-.0552-1.4787-3.0975-1.3941,3.0423-13.9372.1104c-8.3424.2281-8.2578-11.9377-.6106-12.6587l6.4886-.2943,3.1045-9.5943-.0074-.0037Zm2.8434,18.5008h-12.3665c-2.2843.0367-2.3983-4.9002-.0846-4.7751l9.4459-.1766,6.4371-17.1542,6.6872,17.3309h9.9352c2.4093.3605,2.4498,4.3005,0,4.7751h-13.025c-.423,0-3.8475-10.6097-3.8475-10.6097l-3.1817,10.6097Zm8.1107-22.4592l-1.0078-5.0841h8.9015c1.3169.4084,1.5523,4.7199-.5922,5.0841h-7.3015Zm-8.9052.1876l1.0078-5.0841h-8.9016c-1.3168.4084-1.5523,4.7199.5922,5.0841h7.3015Z" style="fill:#2b6cb0; fill-rule:evenodd; stroke-width:0px;"/><path d="m36.1102,66.0824l.2207.0478-.9085,2.8437c-.0442.1324-.0589.2244-.0515.2649.0073.0441.033.0772.0735.1104.0404.0294.1324.0589.2722.0919l.2906.0626-.0663.206-1.9458-.4303.0662-.2061.32.0699c.1398.0294.2355.0404.2907.0294.0515-.0111.0993-.0331.1397-.0736.0405-.0404.0773-.1177.1177-.2391l.7467-2.3361-.7467-.1655.0662-.2098c.423.0405.7945.0185,1.1182-.0699l-.0037.0037Z" style="fill:#2b6caf; stroke-width:0px;"/><path d="m39.0602,70.8648l.0478-.2538c.5039.0699.9196.0662,1.2506-.0148.3311-.0772.5922-.2317.7835-.4598.1913-.2281.3274-.5224.4156-.8866-.1287.125-.2538.2207-.3788.2832-.1214.0626-.2612.103-.412.1251-.1545.0221-.3126.0184-.4819-.0073-.2759-.0405-.5076-.1324-.7026-.2759-.1949-.1398-.3347-.3127-.4193-.5187-.0846-.2023-.103-.4304-.0589-.6805.0735-.401.2685-.6953.5775-.8829.3458-.2061.754-.2722,1.2286-.2024.3421.0515.618.1582.8276.3201s.3604.3863.4487.6658c.0883.2833.0956.6144.0257.997s-.206.7101-.4046.9896c-.1986.2796-.445.4893-.7356.6291-.2907.1434-.5959.2208-.9159.2354s-.6069,0-.8571-.0368l-.2354-.0367-.0037.011Zm1.4161-1.4788c.2869.0441.5444-.0185.7687-.1876.2244-.1693.3605-.3937.412-.6695.0367-.195.0257-.3863-.0368-.5665-.0589-.1803-.1545-.3201-.2832-.4231-.1251-.103-.2833-.1655-.4635-.1949-.2759-.0405-.526.0184-.7467.1802s-.3605.4047-.4193.721c-.0552.3054-.0111.5629.136.7688.1472.2061.3568.3311.629.3716h.0037Z" style="fill:#2b6caf; stroke-width:0px;"/><path d="m44.8168,66.9727l1.898-.1104c.1141-.0074.1876-.0184.2097-.0294.0331-.0184.0478-.0589.0515-.1214l.2244-.0147.0589.5812-2.1077.1251.0442.9748c.0846-.0294.1949-.0515.3273-.0736.1729-.0294.3237-.0478.4598-.0552.3385-.0184.64.0184.9049.1141.2612.0956.4709.2354.6217.4194.1509.1839.2391.3973.2612.6327.0367.3679-.0846.688-.3642.9602-.2795.2722-.6547.423-1.1256.4488-.2722.0147-.5223-.0148-.7541-.0883-.228-.0772-.4156-.1839-.5517-.3201-.1398-.1361-.2133-.2612-.2244-.3679-.0073-.07.0148-.1361.0626-.1913.0478-.0552.1141-.0846.195-.092.0846-.0036.1618.0221.2354.0846.0404.0294.0919.1104.1545.2354.0883.1766.2024.3017.3494.3789.1435.0772.3163.1141.5187.0994.2023-.0111.3789-.0626.5297-.1509.1508-.0882.2648-.2134.3421-.3679.0772-.1545.1067-.3237.0883-.5077-.0184-.195-.0846-.3642-.1987-.5077-.114-.1435-.2648-.2539-.4598-.3274-.1912-.0736-.4193-.0993-.6841-.0846-.1618.0111-.3311.0331-.5113.0772-.1802.0405-.3347.092-.4635.1472l-.0809-1.8725-.011.0037Z" style="fill:#2b6caf; stroke-width:0px;"/><path d="m50.7205,67.267l-.2869.033c-.0441-.1949-.0478-.3642-.011-.5077.0478-.1949.1508-.3642.3126-.5077.1618-.1434.3715-.2501.6253-.3164.2502-.0662.4856-.0809.7063-.0478.2207.0331.4046.1067.5518.2171.1471.1104.2501.2465.3053.4047.0515.1398.0589.2722.0257.401-.0331.1287-.1067.2575-.2207.3825-.0809.0883-.1949.1766-.3421.2649.1839-.0221.3421-.0221.4709,0,.2097.0367.3972.1177.5554.2391.1582.1214.2685.2722.3347.4525.103.2869.0589.5738-.1361.8645-.1949.2906-.5076.4929-.9416.6033-.4267.1104-.824.103-1.1955-.0331-.3089-.1141-.4965-.2649-.5628-.4451-.0257-.07-.0221-.1361.0111-.1987.0331-.0625.0846-.103.1618-.1214.0809-.0221.1655-.0111.2428.0331.0441.0257.1104.0956.1949.2097.1214.1619.2685.2686.4414.3237.1728.0552.3641.0588.5702.0036.1839-.0478.3384-.1287.4561-.2427.1213-.1141.1949-.2502.2317-.4084.0368-.1582.0221-.3201-.0368-.4856-.0478-.1324-.1213-.2428-.2206-.3311-.0994-.0882-.2207-.1545-.3568-.1986-.1067-.0331-.2317-.0442-.3752-.0331-.1435.0111-.2685.0331-.3752.0589l-.2611.0699-.092-.2538.1655-.0442c.1655-.0441.3163-.103.4561-.1765.1361-.0736.2317-.1802.2832-.3164.0479-.1361.0479-.2722,0-.4158-.0441-.1214-.114-.2244-.2133-.3053-.0993-.0809-.217-.1361-.3604-.1583-.1435-.0257-.2943-.0184-.4561.0258-.1582.0404-.2906.1103-.4009.2023-.1104.092-.1839.1987-.2281.3201-.0441.1178-.0515.2649-.0257.4415l-.0037-.0037Z" style="fill:#2b6caf; stroke-width:0px;"/><path d="m81.6845,23.6142c-.0142.3054-.7464,1.2655-.9602,1.5267-.0621.0331-.125.0663-.187.1031.0293.1729-.0411.3016-.1878.401-.3455.2427-.9636.5297-1.122-.0516-.0621-.2244.1182-.8535.0662-.938.151-.1361.3019-.2686.4562-.4047.2063-.092.4159-.1803.6214-.2722.5703-.2465.6701-.5077,1.3133-.3643Zm2.0638,4.8414c.0923.2686.2575.5444.2793.813.052.5556-.3673,1.2251-1.0005,1.0742-.1434-.0883-.2834-.1765-.4268-.2649-.3749-.2428-.717-.4745-1.0483-.802-.1761-.1765-.2902-.4488-.4486-.629-.125-.1031-.2499-.2061-.3749-.3091-.0151.0405-.0184.0589.0076.0993.0109.0479.0184.0957.0293.1398.0772.0074.2902.0478.3346.1178-.0151.0073-.026.0147-.0403.0221.3086.4525.4445,1.3023.3858,1.7953-.1065.2575-.2172.5187-.3237.7762-.0805.1876-.1694.4488-.3128.5923-.1946.195-.4814.2465-.6986.3237-.1652.0588-.3346.1692-.5006.1729-.7019.0111-1.4382-.6144-1.7208-1.3096-.0184-.0515-.0226-.2023-.0738-.1693-.0075-.0147-.0151-.0257-.0218-.0404-.1367.103-.3061.3201-.4897.3606-.3162.0699-.7505-.1619-1.0701-.1913-.3572-.0331-.7061.3053-.6516.6695.0738.1104.1434.2244.2214.3347.1174.0331.2935.1435.364.2612.1543.2649.3975.9675.3824,1.2288-.0369.5812-.7103,1.0741-1.1036.4083-.0512-.2134-.1031-.4267-.1543-.6438-.0293-.1471.0034-.3053-.052-.4562-.0293-.0882-.1392-.2317-.2021-.2906-.0369-.0367-.0847-.1104-.1392-.0772.0293.0515.0361.0294-.0151.0626-.1987.0294-.4705.2428-.6323.3568-.3237.2244-.8319.4452-1.1925.3164-.2457-.092-.4856-.2281-.6399-.4709-.1174-.1876-.0847-.4636-.1392-.6695-.0704-.1656-.14-.331-.2138-.5003-.0772-.2207-.1878-1.0007.0478-1.1405.125.1693.2499.3422.3757.5114.1174.1251.2348.2502.3564.3752.0327.0074.0629.0148.0218.0405.0151.0257.0294.0515.0478.0772.0151-.0074.026-.0147.0411-.0221.0293.0515.0109.0478.0621.0147.0293.0515.0369.0294-.0143.0626.073.0956.1468.195.2239.2906.2499.1141.379.3017.6767.3164.0444,0,.0369,0,.0629.0405.1099-.103.3346-.195.3422-.3606v-.0257c-.0109-.0367-.0185-.0699-.0293-.1067-.151-.4525-.5996-.721-.8244-1.1515-.0956-.2575-.1946-.5114-.2902-.7688-.0369-.1582-.0704-.3164-.1073-.4745.0444-.0442.0889-.0883.1325-.1325.0076.0148.0151.0258.0226.0405.3011.1508.5107.4194.7019.7468.2398.1693.5812.894.7547,1.1883.1065-.0074.2943.1434.3715.0956-.0335-.1067.0805-.2649.1501-.3421.1769-.195.3539-.4304.6516-.5187.3455-.1067,1.1405.1619,1.4047-.2465.2281-.3531-.6063-.7504-.816-.8313-.1216-.0185-.2432-.0331-.3681-.0479-.0662-.033-.1325-.1508-.1107-.228.0478-.1802,1.0415-.4267,1.1807-.3863.2801.0772.6843.3458.8386.6107.2097.3532.0704.5886.1401.8793.0922.3862.9158.9417,1.247,1.0705.5115.1949.9602-.0331,1.2948-.4378.0109-.0111.1401-.1693.0403-.1141.0813-.1582.1727-.2869.1769-.4819.0142-.5849-.4898-1.3943-.982-1.7106-.239-.1545-.5266-.1545-.7841-.2538-1.1807-.4599-2.6299-.9933-3.8911-.596-.0075-.0148-.0151-.0257-.0226-.0405-.2239.1214-1.0885.3495-1.2646.2318-.3312-.2207-.1736-1.1772.1619-1.3759.0587-.0331.1686-.0809.2055-.0147.1803-.2686.5887-.5041.868-.6695.1258-.1435.3757.103.4419.2134.1392.0367.4151.1251.5518.0441.0621.0074.125.0184.187.0257.644.0736,1.2545.4194,1.8281.6512.0847.033.2063.0699.2943.0147-.0075.0442-.0142.0626-.0553.0846.0151.0257.0302.0515.0478.0772.379-.0404,1.3795.6107,1.7217.8094.2801.1582.5887.2649.8646.4304.1694.1361.3422.2686.5115.4047.0621.0515.3271.1839.3053.1986.0294.0479.0252.0883.0847.0552.0512.0552.1023.1141.1543.1729.1065-.0294.3564-.0957.353-.2539-.0034-.0993-.3681-.526-.4227-.4929-.0554.0037-.1258.0552-.1618-.0074-.0185-.0589-.1845-.0515-.2247-.0257-.0738-.1619-.2683-.2869-.3824-.4121-.3279-.3679.0662-.7615.1727-1.0705.0151-.0404.0847-.2501.1359-.1619.1543.0626.1987.3348.2759.4709.1107.0552.2021.2501.291.3421.2902.2906.7321.4966.9527.8718.2533.1398.3858.2539.6726.3385l-.0143.0037Z" style="fill:#2b6caf; fill-rule:evenodd; stroke-width:0px;"/><path d="m55.2338,2.3508c.1471.0846.3789.1582.4892.2759.1618.1729.1876.4782.2133.699.0221.2612.0404.5224.0588.7836-.0147.2318-.1655.5187-.2464.7174-.1361.3274-.2318.6438-.3973.9234-.1434.2097-.2906.4194-.434.6254-.0405.0625-.4083.3826-.2391.4304.0184-.0625.0257-.0405-.0331-.0589.4745-.1251.949-.2502,1.4235-.3752.3567-.1435.7136-.2833,1.0704-.4267.7025-.2465,1.4493-.3716,2.1555-.6438.2685-.1177.5333-.2391.8019-.3568.1618-.0993.3348-.4415.5224-.4635.2869-.0405.5443.3385.5959.5702.0404.1803.0367.4304-.1325.5518-.2648.1803-.7393.0699-1.0446.1435-.3863.1104-.7688.2244-1.155.3348-.4892.0993-.9748.1987-1.464.298-.4524.1214-.9012.2649-1.3683.3421-.0404.0074-.0588.0037-.0735.0552-.0331.0147-.0589.0331-.011.0442-.0037.0147-.0074.0331-.0148.0478.0148.0037.0331.0074.0478.0147.0736-.0184.2428.0221.2685-.0736.1324.0515.2612.103.3936.1508.3715.1508.5921.4157.8276.7027.0404.0478.1508.0993.1287.1692-.092.0883-.1839.1803-.2759.2686-.3752.2833-.8313.4451-1.2469.6144-.2318.0919-.4598.1839-.6915.2759-.0405.0111-.0994.0185-.1177.0736-.0331.0147-.0589.0367-.0699.0772.2501.1949.4634.3568.8092.4709.0662.0221.0479.0074.0331.0626.0148.0037.0331.0074.0478.0147-.0073.0294-.0184.0626-.0257.092-.4524-.0074-.4965.6548-.7577.5812-.0037.0148-.0074.0331-.0148.0478.0478.0148.092.0257.1398.0405-.0184.0589-.0294.0404.0331.0589.0037-.0148.0073-.0294.011-.0442.0846-.0257.1729-.0515.2575-.0772.0735-.0478.1471-.206.2574-.1729-.0699.6511-.7173.9013-1.0041,1.4126-.2796.4966-.3568,1.4126-.412,1.9129-.0148.1435-.0772.3274-.2097.3826-.2097.0883-1.1476-.4562-1.3978-.5592-.1067-.0257-.2133-.0478-.32-.0736-.0294.0294-.103.0699-.0257.0919-.0772.1361-.1214.3054-.2465.3974-.1692.1214-.3604.0147-.5407-.0405-.1582-.0404-.3126-.0772-.4671-.1178-.4819-.2869-.9122-1.0889-.5555-1.6297.0699-.1067.1913-.1802.3053-.0919.0846.0662.0772.2023.114.2906.1434.331.4561.6805.8165.7836.0074-.0294.0185-.0589.0257-.092.0148.0037.0294.0074.0478.0147.0148-.1251.1251-.2612.2612-.2244.4856-.1104.8165.1839,1.2543-.2244.0368-.0367.206-.2575.0809-.2943.0037-.0147.0074-.0294.0111-.0441-.081-.0111-.2207-.0405-.2907-.0957-.0919-.0736-.7356-.8424-.7099-.927-.0148-.0037-.0294-.0074-.0442-.0111.1177-.0551.8976-.1949.9086-.2391.0293-.0404.0588-.0809.0845-.1251-.1765-.1361-.4561-.3164-.3788-.6033.0662-.0148.2023-.0074.2243-.0846.0368.0552.0442.1104.1104.1287.0037-.0148.0074-.0294.0147-.0478.0148.0037.0331.0073.0479.0147.0184-.0625-.0037-.0515.0589-.0331.0073-.0294.0184-.0588.0257-.0919-.1177-.1729-.206-.504-.4341-.5702-.0626-.0626-.195-.2023-.2833-.228.0037-.0185.0074-.0294.0148-.0479,1.0226-.1655,2.0966-.1434,2.9095-.9013.114-.1104.2575-.1839.3458-.3201.0699-.1067.0331-.2538.0662-.3716-1.4898-.3201-2.9721-.1104-4.3258.2391-.4782.1214-.9306.4378-1.4529.3789-.2318-.0257-.5297-.1839-.6658-.3421-.0552-.0662-.3089-.5813-.3163-.5849.0185-.0625-.0037-.0515.0589-.0331.1435-.0368.3715.0037.5297.0515.2685-.0294.537-.0625.8093-.0956.8424-.1508,1.6773-.3201,2.5417-.3642.0663-.0037.0993.011.1177-.0589-.0626-.0184-.0515,0-.0331-.0589.0589-.011.0993,0,.1177-.0662-.0626-.0184-.0515,0-.0331-.0589.4745-.4231,1.1587-2.9541,1.0152-3.5905-.0148-.0625-.0184-.3973.0478-.3789.114-.1177.2538-.1913.412-.2318l-.0037-.011Zm1.3426,1.7658c.2575.2171.3458.493.7246.5996.1471-.0221.3604.0515.5186.0957.0809.0074.1618.0147.2428.0184-.0147.0589-.0037.0993-.0699.0809-.2133.0993-.4267.1987-.64.298-.0846.0699-.1692.1435-.2575.2171-.2575.092-.971-.3936-.8828-.7137-.0221-.2428.1987-.4782.3642-.5923v-.0037Zm-4.1345-.1177c.2207.1472.3348.4194.5996.5224.4009.1545.8902-.1067,1.2395-.0074-.2169.4194-.7173.6622-1.0041,1.019-.114.1361-.2024.3127-.3678.3936-.1692.0773-.4194.1067-.5812-.0257-.3458-.2869-.3421-.7762-.3788-1.1772-.0148-.1655-.0957-.3458-.0516-.5297.0111-.0552.0331-.2354.1067-.217.0037-.0147.0074-.0294.0111-.0441.1435.0221.2832.0478.4267.0699v-.0037Zm3.4282,8.6489c.7026.2465,1.1293.5555,1.1109,1.306-.0037.0515.0073.0515-.0479.0368-.2721.3237-1.166.8609-1.5964.7431.2502-.5555.5554-1.2067.4745-1.8321-.0037-.033-.0589-.1361.0221-.1104.0148-.0478.0258-.0919.0405-.1397l-.0037-.0037Z" style="fill:#2b6caf; fill-rule:evenodd; stroke-width:0px;"/><path d="m6.1723,23.4855c.4745-.4709.9159.1067,1.372.3826.331.2023.7761.0809,1.1255.2317.1692.0736.3201.1545.4709.2428.0662.0993.1361.2024.2023.3017.1692.2171.3385.4378.5076.6548.195.4268.3863.8572.5812,1.284.1986.3384.7319.7468,1.1071.9711.0479.0294.1031.0294.0626.0846.0257.0184.0515.0368.0772.0552.0294-.0368.0552-.0772.0846-.1141-.0404-.1876-.0809-.3716-.1213-.5555-.0516-.1508-.0994-.3054-.1509-.4562-.011-.1361-.0184-.2686-.0294-.4047-.0662-.2686-.1802-.5812-.1471-.8609.0073-.0625.0147-.033-.0331-.0699-.0074-.0294-.0111-.0663-.0404-.0294-.1729-.1876-.3494-.4194-.5812-.5849-.2243-.1619-.5039-.2576-.7099-.4047.011-.0147.0184-.0257.0294-.0368-.0148-.011-.0257-.0184-.0405-.0294.1398-.1324.3936-.2612.4635-.4709.0809-.2538-.3568-1.0852-.5885-1.2287-.3127-.1398-.6217-.2796-.938-.4194.011-.0148.0184-.0257.0294-.0368-.0148-.0111-.0257-.0184-.0405-.0294.0663-.092.1324-.1802.195-.2722.0147-.1545.1177-.3384.217-.4856.6841-1.019,1.692-.2097,1.6847.688,0,.0257-.0257.2943.0404.2023-.0221.4194-.0735,1.1257.3311,1.4163.0441.1178.7283.3495.8976.4709.0184-.0257.0367-.0515.0552-.0772.0404-.0294.0808-.0589.1213-.0883-.125-.4745-.0294-1.0374-.1067-1.523-.0441-.2796-.2023-.5187-.1839-.8204,0-.0515-.0148-.2317.0515-.1876.0552-.1287.1141-.2575.1692-.3862.0294-.1214.0588-.2465.0845-.3715.2465.0699.4929.1361.7357.206.0956.0589.1545.1802.2023.2686.2649.4929.1546.7137.1546,1.2361,0,.1876.0478.3789.0699.5629.0147.1545.0147.3458.1104.4745.2648.3606.9122.5665,1.2617.916.3421.3421.5333.802.8056,1.1882.1802.2576.4414.5997.7062.7984.2318.1434.4635.2869.6916.4304.6069-.2098,1.8906.401,1.3205,1.1882-.4009-.0184-.8386.2061-1.2874.0736-.3715-.1067-.9012-.732-1.2286-.9969-.2428-.1509-.4855-.3054-.7283-.4562-.3567-.2244-.6326-.5482-.9674-.791-.114-.0589-.2243-.1177-.3421-.1765-.0184.0257-.0367.0515-.0552.0772.0552.092.1766.2465.092.3605.0589.0074.1582-.0036.2097.0331-.114.3937.3863.7652.2685,1.2103-.0331.1287-.2648.2207-.3752.2539-.7872.2171-1.1697-.3569-1.5927-.894-.0662-.0993-.1361-.1987-.206-.2943-.011.0147-.0184.0257-.0294.0368-.0147-.0111-.0257-.0185-.0404-.0294-.092.2649.1067.6842.1582.9638.0735.4157.3126.9491.6069,1.2434.2318.2391.6437.3937.9085.5187.3311.1582.629.3605.9637.4378.3936.0919.9637.0845,1.3132.3347-.3494,1.2618-2.0267-.2502-2.5969.8351-.0441.0809-.1177.2686-.0184.3384-.2317.2207-.4892.3201-.7945.2061-.3679-.1361-.7872-.3606-.7468-.8314.0368-.1619.0736-.3274.1104-.4893.0257-.3789-.1324-.9013-.2721-1.2472-.1177-.2906-.5407-.5555-.8166-.7541-.0552.0184-.1435.0736-.1987.033-.0367.0515-.0404.0294.0111.0663.0294.1986.1765.4121.1398.6107-.0589.2906-.5554.6401-.4598.9418.0956.3127.3274.5849.5187.8535.3384.4819.5812,1.0668.9784,1.512.2024.2244.5554.3568.6989.618.0626.1214.0846.3421.0552.4782-.0294.1434-.1435.3237-.2832.3899-.2759.1287-1.2948-.1104-1.5266-.3384-.1655-.1582-.2575-.4047-.3788-.5923-.0294-.0441-.0221-.1324-.0772-.1729-.114-.0404-.7357-.6953-.7026-.7431-.0515-.0368-.0294-.0404-.0663.0111-.32-.4047-.938-.8094-1.4419-.8425-.2722-.0184-.5554.0589-.835.0515-.0478,0-.2758.0074-.2207-.0736-.0993-.493.4635-1.409.8534-1.7953.1471-.1104.2979-.2208.4487-.3311.011.0074.0257.0185.0367.0257.092.0552.1876.1141.2796.1729.1435.0736.3348.1656.4304.3017.4598.6768-.2317.7357-.1177,1.2397.0552.2502.3605.5151.5334.7137.2833.331.5407.7137.8498,1.0411.1545.1693.4119.3237.5848.0846-.114-.2281-.1214-.5261-.1802-.7836-.1067-.4525-.2685-1.1073-.5407-1.4863-.0294-.0404-.1582-.1839-.1251-.2244-.0515-.0368-.0478-.0148-.011-.0663-.0331.0037-.0663.0111-.1067-.0184,0,0,.0294-.1214-.0111-.0663-.1691-.0184-.3752-.033-.537-.1508.0257-.2244.1324-.4525.1509-.6806.011-.1765-.0552-.3494-.0589-.5223-.0037-.2686.0956-.7762.0037-1.0264-.1766-.4892-.8166-.7909-1.2543-1.1294-.4966-.401-.9932-.7983-1.4935-1.1993-.3016-.2465-.3862-.5334-.5591-.8277-.0809-.1177-.1655-.2354-.2501-.3532l.0221.0037Zm-.7173,4.6647c.1986-.1839.6804-.6401.9416-.6033.1067.0184.32.1214.3863.2207.1728.2759.2906,1.2361.0846,1.5194-.1067-.0809-.2391-.2208-.3715-.2465-.3936-.0736-.8865.813-1.258.5444.0147-.2649-.0331-.9307.1213-1.1478.0148.0111.0257.0185.0368.0294.0184-.1067.033-.2097.0515-.3164h.0074Z" style="fill:#2b6caf; fill-rule:evenodd; stroke-width:0px;"/><path d="m71.4334,12.2173c.1359.1839.2717.3679.4042.5518-.1099.1913-.3237.3606-.4705.5371-.1694.2097-.3421.423-.5115.6291-.3128.2501-.629.4966-.9417.7468-.2499.1729-.5476.3237-.7799.5481-.0662.0809-.1325.1619-.2021.2428-.0218.0589.0109.1288-.0327.1803.2684.1582.5996.2759.842.4892.0587.0148.1174.0809.1694.0221.364.3421.9418.6107,1.3753.732.1543.0442.2985-.0441.4453.0368.39.1986.8721.802.53,1.1882-.4009-.1655-.821-.5003-1.1958-.7394-.5627-.3605-1.1439-.6254-1.7325-.8645-.3019-.1251-.7321-.3642-1.0701-.3016-.2356.0404-.4159.331-.5996.5077-.6954.6585-1.729,1.6481-2.6596,1.5708-.1987-.0184-.4414-.092-.6143-.2207-.1545-.1177-.6548-.8681-.6253-1.0558.0294-.2061.3016-.3311.4341-.4893.0442-.0552.2391-.3606.3053-.3054.0846-.033.1545-.0221.2428.0037.5517.1324.9563-.0736,1.4419-.2795.1287-.0442.2538-.0846.3826-.1288.0367-.0221.2023-.0699.1324-.1324-.1361-.3421-.5959-.4819-.835-.7799-.1766-.2207-.4451-1.4016-.1876-1.5745.3494-.2354,1.2028,1.2987,1.4088,1.4826.1839.0589.3124.2612.5153.1361.0109.011.0252.0221.0361.0294.317-.2502.6298-.504.9459-.7542.2868-.195.5736-.39.8604-.5849.353-.3274.7061-.6512,1.0558-.9786.1325-.1287.2574-.3715.4084-.4451.1434-.0736.364-.0037.5224-.0074v.0074Zm-3.3988,5.8566c.6726.7725,1.0114,2.314.0696,3.0461-.2021.1545-.3858.2759-.6398.228-1.0227-.1876-.3422-2.1153-.1032-2.7076.052-.1214.026-.2906.1359-.401.1367-.1398.3681-.1141.5375-.1656Z" style="fill:#2b6caf; fill-rule:evenodd; stroke-width:0px;"/><path d="m16.6665,14.5166c.0772-.0368.2097-.1141.2538-.0368.2133.1288.3863.3237.5885.4672.1803.1287.4194.1324.607.2465.206.1251.9747.8387.9711,1.0852-.0074.3532-.3016.3201-.4783.5519-.1287.1655-.114.4047-.1471.5996-.0148.0772-.0626.2318-.0221.3091-.195-.0074-.3458-.1693-.4672-.3311-.206-.2722-.2428-.721-.3715-1.0153-.1508-.1839-.298-.3679-.445-.5518-.1435-.184-.5076-1.1037-.4892-1.3244Zm5.9074-1.913c.2391-.103.5407-.2943.7798-.2722.1177.011.206.1104.2722.2134.2502.3825.1067.8755-.2759,1.1.0074.0147.0184.0294.0257.0404.1324.0074.3274.0883.3973.2097.206.2391.2832.6034.2869.8756,0,.1545-.0442.3899.0441.5371.0148-.0074.0294-.0185.0405-.0221.0073.0148.0184.0294.0257.0405.0882-.0736.423-.3201.4304-.3054.0257-.0147.0552-.0331.0809-.0478-.0074-.0147-.0148-.0257-.0257-.0404.1287-.1325.1876-.3422.3458-.4489.434-.2906,1.5927-.4488,1.692.2759-.0185.0809-.0331.1619-.0516.2428-.1876.6732-.9563.7357-1.5118.9528-.0478.0185-.2281.0699-.1876.1398-.0957.2465-.3237.3164-.5297.504-.0809.0883-.1582.1766-.2428.2649-.3752.3458-.9196.7615-1.4088.9896-.2097.0994-.4597.0111-.6069.0957-.0257-.0405-.0478-.0809-.0735-.1251.0589-.1361.0919-.7174.206-.7836.3348-.0221.6143-.3054.7357-.5812.0294-.0736.0294-.1987.1103-.2428-.0919-.1067-.0515-.2759-.136-.4194.0184-.0699-.0037-.2171.0699-.2612-.4819-.3384-.298-1.1404-.9527-.3936-.0773.0846-.298.4267-.2355.5371-.1397.0404-.2795.0809-.4193.1214-.2796.0294-.6548-.1693-.8387-.3679-.0735-.0074-.1728-.0809-.2243-.1472-.0184-.0846-.0368-.1655-.0589-.2501.1986-.0442.4598.0037.6547-.1104.2097-.1214.309-.4304.4009-.6291.2355-.5077.5334-1.1882,1.0631-1.501.0478-.0478.0956-.0919.1398-.1361-.0074-.0147-.0148-.0257-.0258-.0404l.0037-.0148Zm-4.0277,5.4042c.1213.0037.217.0699.32.114.0919.0294.1876.0626.2795.0957.1655.0846.2502.2795.3458.4525.3053.5629.6622.8682,1.2727.6549.0662-.0221.3936-.1619.3568-.2281.3126-.3458.3936-1.122.1545-1.5304.0478-.0809.0809-.2134.1728-.2686.0589.39.1214.7762.1803,1.1662.0699.5775.3052,1.0668-.1251,1.5745-.1287.0956-.2538.195-.3825.2943-.1509.1141-.3936.3311-.5922.3899-.2648.0772-.5444-.0772-.7357-.2538-.0993-.092-.1765-.2612-.2538-.39-.3605-.6144-1.0446-1.3648-1.0005-2.0711h.0074Z" style="fill:#2b6caf; fill-rule:evenodd; stroke-width:0px;"/><path d="m38.5747,5.8236c.2685-.0147.949-.2391,1.0704.0736.0515.1361-.0626.3348-.1508.4304-.4304.4341-1.4235.8572-1.6774,1.4495-.0956.2244.4487.7248.5113,1.0669.0809.4488-.3126.9087-.4819,1.2949-.0368.0809-.1104.2135-.0883.3091.1398-.0441.6585-.1178.6327-.2354.0147-.0037.0331-.0074.0478-.0111.114-.0074.2244-.0147.3384-.0221.0846-.0883.2943-.309.4157-.3348.0037.0148.0074.0331.011.0479.5407-.3348,1.3316-.7137,1.9128-.2355.0809.1141.1618.2281.2391.3422.1287.1508.2097.412.0257.5665-.2722.2244-.7026.2538-1.0815.3421-.4487.103-.754.3274-1.2249.4267-.2943.0589-.5922.1141-.8902.1729h-.5406c-.2685.0331-.5297.1324-.7835.2134-.1508.0699-.298.1435-.4487.2134-.3385.1325-.6731.2207-.9822.3716-.1434.0662-.2464.2354-.4377.2612-.3053.0367-1.4272-.1693-1.6442-.3311-.0552-.0772-.1067-.1508-.1618-.228-.0257-.0479-.1471-.3017-.0478-.3237.0037.0147.0074.0331.011.0478.6842-.103,1.4015-.2023,2.0746-.3495-.0074-.0294-.0147-.0626-.0184-.092.0515.0074.0993.0111.1508.0185.1655-.0515.3348-.103.5039-.1582.114-.1398.4157-.3348.6033-.3752.1104-.3606.3384-.9197.2538-1.3244.0442-.1067.0111-.3384-.0699-.4304-.1508-.1765-.4598-.2171-.6621-.309-.4635-.2134-1.0042-.6769-1.2028-1.1441-.0294-.0662-.0184-.1839.0699-.206.228.1472.618.1655.8939.0589.0441-.0184.0441-.0221.0551.0294.39-.2244.8203-.5886,1.2691-.71.0589-.0184.092,0,.0772-.0699.3568-.1692.5333-.3311.8056-.5629.0037.0147.0074.0331.0111.0478.0294-.0074.0625-.0147.0919-.0184-.0037-.0147-.0073-.0294-.011-.0478.1765-.0883.3531-.1729.5297-.2612v-.0037Z" style="fill:#2b6caf; fill-rule:evenodd; stroke-width:0px;"/><path d="m44.0002,0c12.1165,0,23.1183,4.9443,31.0896,12.9126,7.9709,7.9719,12.9103,18.9753,12.9103,31.0933s-4.9436,23.1213-12.9103,31.0933c-7.9712,7.972-18.9731,12.9126-31.0896,12.9126s-23.1182-4.9443-31.0892-12.9126C4.94,67.1272,0,56.1276,0,44.0059S4.9437,20.8846,12.9109,12.9126C20.8819,4.9406,31.8838,0,44.0002,0Zm0,.5371c-11.9693,0-22.835,4.8818-30.7103,12.7581C5.4145,21.1716.5334,32.0387.5334,44.0096s4.8812,22.838,12.7565,30.7106c7.8753,7.8726,18.7411,12.7581,30.7103,12.7581s22.8351-4.8818,30.7105-12.7581c7.8711-7.8726,12.756-18.7398,12.756-30.7106s-4.8807-22.838-12.756-30.7143C66.8353,5.4189,55.9694.5371,44.0002.5371Z" style="fill:#2b6caf; stroke-width:0px;"/><path d="m44.0002,14.2002c8.2064,0,15.6587,3.3477,21.0585,8.7482,5.3995,5.4005,8.7472,12.8501,8.7472,21.0612s-3.3477,15.6607-8.7472,21.0612c-5.3961,5.3968-12.8484,8.7445-21.0585,8.7445s-15.6586-3.3477-21.0584-8.7445c-5.3998-5.4005-8.7471-12.8501-8.7471-21.0612s3.3473-15.6607,8.7471-21.0612c5.3961-5.3968,12.8484-8.7482,21.0584-8.7482Zm0,.5371c-8.0592,0-15.3754,3.2888-20.6759,8.59s-8.5889,12.622-8.5889,20.6823,3.2884,15.3774,8.5889,20.6786,12.6167,8.59,20.6759,8.59,15.3754-3.2888,20.6759-8.59c5.3007-5.3012,8.5889-12.6183,8.5889-20.6786s-3.2882-15.3774-8.5889-20.6823c-5.3005-5.3012-12.6167-8.59-20.6759-8.59Z" style="fill:#2b6caf; stroke-width:0px;"/><path d="m37.5778,37.465h-7.0955c-6.2016-1.6849-5.8154-12.5558,1.5008-12.5558h10.5237l1.3683-4.1129,1.681,4.1129h11.057c6.6468,1.2913,7.1949,10.7017.2833,12.5558h-6.4849l2.9095,9.9292,7.5369-.2833c6.7791,2.2146,6.3083,12.4638-.2796,12.9052l-15.1657-.0552-1.4787-3.0975-1.3941,3.0423-13.9372.1104c-8.3424.2281-8.2578-11.9377-.6106-12.6587l6.4886-.2943,3.1045-9.5943-.0074-.0037Zm2.8434,18.5008h-12.3665c-2.2843.0367-2.3983-4.9002-.0846-4.7751l9.4459-.1766,6.4371-17.1542,6.6872,17.3309h9.9352c2.4093.3605,2.4498,4.3005,0,4.7751h-13.025c-.423,0-3.8475-10.6097-3.8475-10.6097l-3.1817,10.6097Zm8.1107-22.4592l-1.0078-5.0841h8.9015c1.3169.4084,1.5523,4.7199-.5922,5.0841h-7.3015Zm-8.9052.1876l1.0078-5.0841h-8.9016c-1.3168.4084-1.5523,4.7199.5922,5.0841h7.3015Z" style="fill:#2b6cb0; fill-rule:evenodd; stroke-width:0px;"/><path d="m36.1102,66.0824l.2207.0478-.9085,2.8437c-.0442.1324-.0589.2244-.0515.2649.0073.0441.033.0772.0735.1104.0404.0294.1324.0589.2722.0919l.2906.0626-.0663.206-1.9458-.4303.0662-.2061.32.0699c.1398.0294.2355.0404.2907.0294.0515-.0111.0993-.0331.1397-.0736.0405-.0404.0773-.1177.1177-.2391l.7467-2.3361-.7467-.1655.0662-.2098c.423.0405.7945.0185,1.1182-.0699l-.0037.0037Z" style="fill:#2b6caf; stroke-width:0px;"/><path d="m39.0602,70.8648l.0478-.2538c.5039.0699.9196.0662,1.2506-.0148.3311-.0772.5922-.2317.7835-.4598.1913-.2281.3274-.5224.4156-.8866-.1287.125-.2538.2207-.3788.2832-.1214.0626-.2612.103-.412.1251-.1545.0221-.3126.0184-.4819-.0073-.2759-.0405-.5076-.1324-.7026-.2759-.1949-.1398-.3347-.3127-.4193-.5187-.0846-.2023-.103-.4304-.0589-.6805.0735-.401.2685-.6953.5775-.8829.3458-.2061.754-.2722,1.2286-.2024.3421.0515.618.1582.8276.3201s.3604.3863.4487.6658c.0883.2833.0956.6144.0257.997s-.206.7101-.4046.9896c-.1986.2796-.445.4893-.7356.6291-.2907.1434-.5959.2208-.9159.2354s-.6069,0-.8571-.0368l-.2354-.0367-.0037.011Zm1.4161-1.4788c.2869.0441.5444-.0185.7687-.1876.2244-.1693.3605-.3937.412-.6695.0367-.195.0257-.3863-.0368-.5665-.0589-.1803-.1545-.3201-.2832-.4231-.1251-.103-.2833-.1655-.4635-.1949-.2759-.0405-.526.0184-.7467.1802s-.3605.4047-.4193.721c-.0552.3054-.0111.5629.136.7688.1472.2061.3568.3311.629.3716h.0037Z" style="fill:#2b6caf; stroke-width:0px;"/><path d="m44.8168,66.9727l1.898-.1104c.1141-.0074.1876-.0184.2097-.0294.0331-.0184.0478-.0589.0515-.1214l.2244-.0147.0589.5812-2.1077.1251.0442.9748c.0846-.0294.1949-.0515.3273-.0736.1729-.0294.3237-.0478.4598-.0552.3385-.0184.64.0184.9049.1141.2612.0956.4709.2354.6217.4194.1509.1839.2391.3973.2612.6327.0367.3679-.0846.688-.3642.9602-.2795.2722-.6547.423-1.1256.4488-.2722.0147-.5223-.0148-.7541-.0883-.228-.0772-.4156-.1839-.5517-.3201-.1398-.1361-.2133-.2612-.2244-.3679-.0073-.07.0148-.1361.0626-.1913.0478-.0552.1141-.0846.195-.092.0846-.0036.1618.0221.2354.0846.0404.0294.0919.1104.1545.2354.0883.1766.2024.3017.3494.3789.1435.0772.3163.1141.5187.0994.2023-.0111.3789-.0626.5297-.1509.1508-.0882.2648-.2134.3421-.3679.0772-.1545.1067-.3237.0883-.5077-.0184-.195-.0846-.3642-.1987-.5077-.114-.1435-.2648-.2539-.4598-.3274-.1912-.0736-.4193-.0993-.6841-.0846-.1618.0111-.3311.0331-.5113.0772-.1802.0405-.3347.092-.4635.1472l-.0809-1.8725-.011.0037Z" style="fill:#2b6caf; stroke-width:0px;"/><path d="m50.7205,67.267l-.2869.033c-.0441-.1949-.0478-.3642-.011-.5077.0478-.1949.1508-.3642.3126-.5077.1618-.1434.3715-.2501.6253-.3164.2502-.0662.4856-.0809.7063-.0478.2207.0331.4046.1067.5518.2171.1471.1104.2501.2465.3053.4047.0515.1398.0589.2722.0257.401-.0331.1287-.1067.2575-.2207.3825-.0809.0883-.1949.1766-.3421.2649.1839-.0221.3421-.0221.4709,0,.2097.0367.3972.1177.5554.2391.1582.1214.2685.2722.3347.4525.103.2869.0589.5738-.1361.8645-.1949.2906-.5076.4929-.9416.6033-.4267.1104-.824.103-1.1955-.0331-.3089-.1141-.4965-.2649-.5628-.4451-.0257-.07-.0221-.1361.0111-.1987.0331-.0625.0846-.103.1618-.1214.0809-.0221.1655-.0111.2428.0331.0441.0257.1104.0956.1949.2097.1214.1619.2685.2686.4414.3237.1728.0552.3641.0588.5702.0036.1839-.0478.3384-.1287.4561-.2427.1213-.1141.1949-.2502.2317-.4084.0368-.1582.0221-.3201-.0368-.4856-.0478-.1324-.1213-.2428-.2206-.3311-.0994-.0882-.2207-.1545-.3568-.1986-.1067-.0331-.2317-.0442-.3752-.0331-.1435.0111-.2685.0331-.3752.0589l-.2611.0699-.092-.2538.1655-.0442c.1655-.0441.3163-.103.4561-.1765.1361-.0736.2317-.1802.2832-.3164.0479-.1361.0479-.2722,0-.4158-.0441-.1214-.114-.2244-.2133-.3053-.0993-.0809-.217-.1361-.3604-.1583-.1435-.0257-.2943-.0184-.4561.0258-.1582.0404-.2906.1103-.4009.2023-.1104.092-.1839.1987-.2281.3201-.0441.1178-.0515.2649-.0257.4415l-.0037-.0037Z" style="fill:#2b6caf; stroke-width:0px;"/><path d="m81.6845,23.6142c-.0142.3054-.7464,1.2655-.9602,1.5267-.0621.0331-.125.0663-.187.1031.0293.1729-.0411.3016-.1878.401-.3455.2427-.9636.5297-1.122-.0516-.0621-.2244.1182-.8535.0662-.938.151-.1361.3019-.2686.4562-.4047.2063-.092.4159-.1803.6214-.2722.5703-.2465.6701-.5077,1.3133-.3643Zm2.0638,4.8414c.0923.2686.2575.5444.2793.813.052.5556-.3673,1.2251-1.0005,1.0742-.1434-.0883-.2834-.1765-.4268-.2649-.3749-.2428-.717-.4745-1.0483-.802-.1761-.1765-.2902-.4488-.4486-.629-.125-.1031-.2499-.2061-.3749-.3091-.0151.0405-.0184.0589.0076.0993.0109.0479.0184.0957.0293.1398.0772.0074.2902.0478.3346.1178-.0151.0073-.026.0147-.0403.0221.3086.4525.4445,1.3023.3858,1.7953-.1065.2575-.2172.5187-.3237.7762-.0805.1876-.1694.4488-.3128.5923-.1946.195-.4814.2465-.6986.3237-.1652.0588-.3346.1692-.5006.1729-.7019.0111-1.4382-.6144-1.7208-1.3096-.0184-.0515-.0226-.2023-.0738-.1693-.0075-.0147-.0151-.0257-.0218-.0404-.1367.103-.3061.3201-.4897.3606-.3162.0699-.7505-.1619-1.0701-.1913-.3572-.0331-.7061.3053-.6516.6695.0738.1104.1434.2244.2214.3347.1174.0331.2935.1435.364.2612.1543.2649.3975.9675.3824,1.2288-.0369.5812-.7103,1.0741-1.1036.4083-.0512-.2134-.1031-.4267-.1543-.6438-.0293-.1471.0034-.3053-.052-.4562-.0293-.0882-.1392-.2317-.2021-.2906-.0369-.0367-.0847-.1104-.1392-.0772.0293.0515.0361.0294-.0151.0626-.1987.0294-.4705.2428-.6323.3568-.3237.2244-.8319.4452-1.1925.3164-.2457-.092-.4856-.2281-.6399-.4709-.1174-.1876-.0847-.4636-.1392-.6695-.0704-.1656-.14-.331-.2138-.5003-.0772-.2207-.1878-1.0007.0478-1.1405.125.1693.2499.3422.3757.5114.1174.1251.2348.2502.3564.3752.0327.0074.0629.0148.0218.0405.0151.0257.0294.0515.0478.0772.0151-.0074.026-.0147.0411-.0221.0293.0515.0109.0478.0621.0147.0293.0515.0369.0294-.0143.0626.073.0956.1468.195.2239.2906.2499.1141.379.3017.6767.3164.0444,0,.0369,0,.0629.0405.1099-.103.3346-.195.3422-.3606v-.0257c-.0109-.0367-.0185-.0699-.0293-.1067-.151-.4525-.5996-.721-.8244-1.1515-.0956-.2575-.1946-.5114-.2902-.7688-.0369-.1582-.0704-.3164-.1073-.4745.0444-.0442.0889-.0883.1325-.1325.0076.0148.0151.0258.0226.0405.3011.1508.5107.4194.7019.7468.2398.1693.5812.894.7547,1.1883.1065-.0074.2943.1434.3715.0956-.0335-.1067.0805-.2649.1501-.3421.1769-.195.3539-.4304.6516-.5187.3455-.1067,1.1405.1619,1.4047-.2465.2281-.3531-.6063-.7504-.816-.8313-.1216-.0185-.2432-.0331-.3681-.0479-.0662-.033-.1325-.1508-.1107-.228.0478-.1802,1.0415-.4267,1.1807-.3863.2801.0772.6843.3458.8386.6107.2097.3532.0704.5886.1401.8793.0922.3862.9158.9417,1.247,1.0705.5115.1949.9602-.0331,1.2948-.4378.0109-.0111.1401-.1693.0403-.1141.0813-.1582.1727-.2869.1769-.4819.0142-.5849-.4898-1.3943-.982-1.7106-.239-.1545-.5266-.1545-.7841-.2538-1.1807-.4599-2.6299-.9933-3.8911-.596-.0075-.0148-.0151-.0257-.0226-.0405-.2239.1214-1.0885.3495-1.2646.2318-.3312-.2207-.1736-1.1772.1619-1.3759.0587-.0331.1686-.0809.2055-.0147.1803-.2686.5887-.5041.868-.6695.1258-.1435.3757.103.4419.2134.1392.0367.4151.1251.5518.0441.0621.0074.125.0184.187.0257.644.0736,1.2545.4194,1.8281.6512.0847.033.2063.0699.2943.0147-.0075.0442-.0142.0626-.0553.0846.0151.0257.0302.0515.0478.0772.379-.0404,1.3795.6107,1.7217.8094.2801.1582.5887.2649.8646.4304.1694.1361.3422.2686.5115.4047.0621.0515.3271.1839.3053.1986.0294.0479.0252.0883.0847.0552.0512.0552.1023.1141.1543.1729.1065-.0294.3564-.0957.353-.2539-.0034-.0993-.3681-.526-.4227-.4929-.0554.0037-.1258.0552-.1618-.0074-.0185-.0589-.1845-.0515-.2247-.0257-.0738-.1619-.2683-.2869-.3824-.4121-.3279-.3679.0662-.7615.1727-1.0705.0151-.0404.0847-.2501.1359-.1619.1543.0626.1987.3348.2759.4709.1107.0552.2021.2501.291.3421.2902.2906.7321.4966.9527.8718.2533.1398.3858.2539.6726.3385l-.0143.0037Z" style="fill:#2b6caf; fill-rule:evenodd; stroke-width:0px;"/><path d="m55.2338,2.3508c.1471.0846.3789.1582.4892.2759.1618.1729.1876.4782.2133.699.0221.2612.0404.5224.0588.7836-.0147.2318-.1655.5187-.2464.7174-.1361.3274-.2318.6438-.3973.9234-.1434.2097-.2906.4194-.434.6254-.0405.0625-.4083.3826-.2391.4304.0184-.0625.0257-.0405-.0331-.0589.4745-.1251.949-.2502,1.4235-.3752.3567-.1435.7136-.2833,1.0704-.4267.7025-.2465,1.4493-.3716,2.1555-.6438.2685-.1177.5333-.2391.8019-.3568.1618-.0993.3348-.4415.5224-.4635.2869-.0405.5443.3385.5959.5702.0404.1803.0367.4304-.1325.5518-.2648.1803-.7393.0699-1.0446.1435-.3863.1104-.7688.2244-1.155.3348-.4892.0993-.9748.1987-1.464.298-.4524.1214-.9012.2649-1.3683.3421-.0404.0074-.0588.0037-.0735.0552-.0331.0147-.0589.0331-.011.0442-.0037.0147-.0074.0331-.0148.0478.0148.0037.0331.0074.0478.0147.0736-.0184.2428.0221.2685-.0736.1324.0515.2612.103.3936.1508.3715.1508.5921.4157.8276.7027.0404.0478.1508.0993.1287.1692-.092.0883-.1839.1803-.2759.2686-.3752.2833-.8313.4451-1.2469.6144-.2318.0919-.4598.1839-.6915.2759-.0405.0111-.0994.0185-.1177.0736-.0331.0147-.0589.0367-.0699.0772.2501.1949.4634.3568.8092.4709.0662.0221.0479.0074.0331.0626.0148.0037.0331.0074.0478.0147-.0073.0294-.0184.0626-.0257.092-.4524-.0074-.4965.6548-.7577.5812-.0037.0148-.0074.0331-.0148.0478.0478.0148.092.0257.1398.0405-.0184.0589-.0294.0404.0331.0589.0037-.0148.0073-.0294.011-.0442.0846-.0257.1729-.0515.2575-.0772.0735-.0478.1471-.206.2574-.1729-.0699.6511-.7173.9013-1.0041,1.4126-.2796.4966-.3568,1.4126-.412,1.9129-.0148.1435-.0772.3274-.2097.3826-.2097.0883-1.1476-.4562-1.3978-.5592-.1067-.0257-.2133-.0478-.32-.0736-.0294.0294-.103.0699-.0257.0919-.0772.1361-.1214.3054-.2465.3974-.1692.1214-.3604.0147-.5407-.0405-.1582-.0404-.3126-.0772-.4671-.1178-.4819-.2869-.9122-1.0889-.5555-1.6297.0699-.1067.1913-.1802.3053-.0919.0846.0662.0772.2023.114.2906.1434.331.4561.6805.8165.7836.0074-.0294.0185-.0589.0257-.092.0148.0037.0294.0074.0478.0147.0148-.1251.1251-.2612.2612-.2244.4856-.1104.8165.1839,1.2543-.2244.0368-.0367.206-.2575.0809-.2943.0037-.0147.0074-.0294.0111-.0441-.081-.0111-.2207-.0405-.2907-.0957-.0919-.0736-.7356-.8424-.7099-.927-.0148-.0037-.0294-.0074-.0442-.0111.1177-.0551.8976-.1949.9086-.2391.0293-.0404.0588-.0809.0845-.1251-.1765-.1361-.4561-.3164-.3788-.6033.0662-.0148.2023-.0074.2243-.0846.0368.0552.0442.1104.1104.1287.0037-.0148.0074-.0294.0147-.0478.0148.0037.0331.0073.0479.0147.0184-.0625-.0037-.0515.0589-.0331.0073-.0294.0184-.0588.0257-.0919-.1177-.1729-.206-.504-.4341-.5702-.0626-.0626-.195-.2023-.2833-.228.0037-.0185.0074-.0294.0148-.0479,1.0226-.1655,2.0966-.1434,2.9095-.9013.114-.1104.2575-.1839.3458-.3201.0699-.1067.0331-.2538.0662-.3716-1.4898-.3201-2.9721-.1104-4.3258.2391-.4782.1214-.9306.4378-1.4529.3789-.2318-.0257-.5297-.1839-.6658-.3421-.0552-.0662-.3089-.5813-.3163-.5849.0185-.0625-.0037-.0515.0589-.0331.1435-.0368.3715.0037.5297.0515.2685-.0294.537-.0625.8093-.0956.8424-.1508,1.6773-.3201,2.5417-.3642.0663-.0037.0993.011.1177-.0589-.0626-.0184-.0515,0-.0331-.0589.0589-.011.0993,0,.1177-.0662-.0626-.0184-.0515,0-.0331-.0589.4745-.4231,1.1587-2.9541,1.0152-3.5905-.0148-.0625-.0184-.3973.0478-.3789.114-.1177.2538-.1913.412-.2318l-.0037-.011Zm1.3426,1.7658c.2575.2171.3458.493.7246.5996.1471-.0221.3604.0515.5186.0957.0809.0074.1618.0147.2428.0184-.0147.0589-.0037.0993-.0699.0809-.2133.0993-.4267.1987-.64.298-.0846.0699-.1692.1435-.2575.2171-.2575.092-.971-.3936-.8828-.7137-.0221-.2428.1987-.4782.3642-.5923v-.0037Zm-4.1345-.1177c.2207.1472.3348.4194.5996.5224.4009.1545.8902-.1067,1.2395-.0074-.2169.4194-.7173.6622-1.0041,1.019-.114.1361-.2024.3127-.3678.3936-.1692.0773-.4194.1067-.5812-.0257-.3458-.2869-.3421-.7762-.3788-1.1772-.0148-.1655-.0957-.3458-.0516-.5297.0111-.0552.0331-.2354.1067-.217.0037-.0147.0074-.0294.0111-.0441.1435.0221.2832.0478.4267.0699v-.0037Zm3.4282,8.6489c.7026.2465,1.1293.5555,1.1109,1.306-.0037.0515.0073.0515-.0479.0368-.2721.3237-1.166.8609-1.5964.7431.2502-.5555.5554-1.2067.4745-1.8321-.0037-.033-.0589-.1361.0221-.1104.0148-.0478.0258-.0919.0405-.1397l-.0037-.0037Z" style="fill:#2b6caf; fill-rule:evenodd; stroke-width:0px;"/><path d="m6.1723,23.4855c.4745-.4709.9159.1067,1.372.3826.331.2023.7761.0809,1.1255.2317.1692.0736.3201.1545.4709.2428.0662.0993.1361.2024.2023.3017.1692.2171.3385.4378.5076.6548.195.4268.3863.8572.5812,1.284.1986.3384.7319.7468,1.1071.9711.0479.0294.1031.0294.0626.0846.0257.0184.0515.0368.0772.0552.0294-.0368.0552-.0772.0846-.1141-.0404-.1876-.0809-.3716-.1213-.5555-.0516-.1508-.0994-.3054-.1509-.4562-.011-.1361-.0184-.2686-.0294-.4047-.0662-.2686-.1802-.5812-.1471-.8609.0073-.0625.0147-.033-.0331-.0699-.0074-.0294-.0111-.0663-.0404-.0294-.1729-.1876-.3494-.4194-.5812-.5849-.2243-.1619-.5039-.2576-.7099-.4047.011-.0147.0184-.0257.0294-.0368-.0148-.011-.0257-.0184-.0405-.0294.1398-.1324.3936-.2612.4635-.4709.0809-.2538-.3568-1.0852-.5885-1.2287-.3127-.1398-.6217-.2796-.938-.4194.011-.0148.0184-.0257.0294-.0368-.0148-.0111-.0257-.0184-.0405-.0294.0663-.092.1324-.1802.195-.2722.0147-.1545.1177-.3384.217-.4856.6841-1.019,1.692-.2097,1.6847.688,0,.0257-.0257.2943.0404.2023-.0221.4194-.0735,1.1257.3311,1.4163.0441.1178.7283.3495.8976.4709.0184-.0257.0367-.0515.0552-.0772.0404-.0294.0808-.0589.1213-.0883-.125-.4745-.0294-1.0374-.1067-1.523-.0441-.2796-.2023-.5187-.1839-.8204,0-.0515-.0148-.2317.0515-.1876.0552-.1287.1141-.2575.1692-.3862.0294-.1214.0588-.2465.0845-.3715.2465.0699.4929.1361.7357.206.0956.0589.1545.1802.2023.2686.2649.4929.1546.7137.1546,1.2361,0,.1876.0478.3789.0699.5629.0147.1545.0147.3458.1104.4745.2648.3606.9122.5665,1.2617.916.3421.3421.5333.802.8056,1.1882.1802.2576.4414.5997.7062.7984.2318.1434.4635.2869.6916.4304.6069-.2098,1.8906.401,1.3205,1.1882-.4009-.0184-.8386.2061-1.2874.0736-.3715-.1067-.9012-.732-1.2286-.9969-.2428-.1509-.4855-.3054-.7283-.4562-.3567-.2244-.6326-.5482-.9674-.791-.114-.0589-.2243-.1177-.3421-.1765-.0184.0257-.0367.0515-.0552.0772.0552.092.1766.2465.092.3605.0589.0074.1582-.0036.2097.0331-.114.3937.3863.7652.2685,1.2103-.0331.1287-.2648.2207-.3752.2539-.7872.2171-1.1697-.3569-1.5927-.894-.0662-.0993-.1361-.1987-.206-.2943-.011.0147-.0184.0257-.0294.0368-.0147-.0111-.0257-.0185-.0404-.0294-.092.2649.1067.6842.1582.9638.0735.4157.3126.9491.6069,1.2434.2318.2391.6437.3937.9085.5187.3311.1582.629.3605.9637.4378.3936.0919.9637.0845,1.3132.3347-.3494,1.2618-2.0267-.2502-2.5969.8351-.0441.0809-.1177.2686-.0184.3384-.2317.2207-.4892.3201-.7945.2061-.3679-.1361-.7872-.3606-.7468-.8314.0368-.1619.0736-.3274.1104-.4893.0257-.3789-.1324-.9013-.2721-1.2472-.1177-.2906-.5407-.5555-.8166-.7541-.0552.0184-.1435.0736-.1987.033-.0367.0515-.0404.0294.0111.0663.0294.1986.1765.4121.1398.6107-.0589.2906-.5554.6401-.4598.9418.0956.3127.3274.5849.5187.8535.3384.4819.5812,1.0668.9784,1.512.2024.2244.5554.3568.6989.618.0626.1214.0846.3421.0552.4782-.0294.1434-.1435.3237-.2832.3899-.2759.1287-1.2948-.1104-1.5266-.3384-.1655-.1582-.2575-.4047-.3788-.5923-.0294-.0441-.0221-.1324-.0772-.1729-.114-.0404-.7357-.6953-.7026-.7431-.0515-.0368-.0294-.0404-.0663.0111-.32-.4047-.938-.8094-1.4419-.8425-.2722-.0184-.5554.0589-.835.0515-.0478,0-.2758.0074-.2207-.0736-.0993-.493.4635-1.409.8534-1.7953.1471-.1104.2979-.2208.4487-.3311.011.0074.0257.0185.0367.0257.092.0552.1876.1141.2796.1729.1435.0736.3348.1656.4304.3017.4598.6768-.2317.7357-.1177,1.2397.0552.2502.3605.5151.5334.7137.2833.331.5407.7137.8498,1.0411.1545.1693.4119.3237.5848.0846-.114-.2281-.1214-.5261-.1802-.7836-.1067-.4525-.2685-1.1073-.5407-1.4863-.0294-.0404-.1582-.1839-.1251-.2244-.0515-.0368-.0478-.0148-.011-.0663-.0331.0037-.0663.0111-.1067-.0184,0,0,.0294-.1214-.0111-.0663-.1691-.0184-.3752-.033-.537-.1508.0257-.2244.1324-.4525.1509-.6806.011-.1765-.0552-.3494-.0589-.5223-.0037-.2686.0956-.7762.0037-1.0264-.1766-.4892-.8166-.7909-1.2543-1.1294-.4966-.401-.9932-.7983-1.4935-1.1993-.3016-.2465-.3862-.5334-.5591-.8277-.0809-.1177-.1655-.2354-.2501-.3532l.0221.0037Zm-.7173,4.6647c.1986-.1839.6804-.6401.9416-.6033.1067.0184.32.1214.3863.2207.1728.2759.2906,1.2361.0846,1.5194-.1067-.0809-.2391-.2208-.3715-.2465-.3936-.0736-.8865.813-1.258.5444.0147-.2649-.0331-.9307.1213-1.1478.0148.0111.0257.0185.0368.0294.0184-.1067.033-.2097.0515-.3164h.0074Z" style="fill:#2b6caf; fill-rule:evenodd; stroke-width:0px;"/><path d="m71.4334,12.2173c.1359.1839.2717.3679.4042.5518-.1099.1913-.3237.3606-.4705.5371-.1694.2097-.3421.423-.5115.6291-.3128.2501-.629.4966-.9417.7468-.2499.1729-.5476.3237-.7799.5481-.0662.0809-.1325.1619-.2021.2428-.0218.0589.0109.1288-.0327.1803.2684.1582.5996.2759.842.4892.0587.0148.1174.0809.1694.0221.364.3421.9418.6107,1.3753.732.1543.0442.2985-.0441.4453.0368.39.1986.8721.802.53,1.1882-.4009-.1655-.821-.5003-1.1958-.7394-.5627-.3605-1.1439-.6254-1.7325-.8645-.3019-.1251-.7321-.3642-1.0701-.3016-.2356.0404-.4159.331-.5996.5077-.6954.6585-1.729,1.6481-2.6596,1.5708-.1987-.0184-.4414-.092-.6143-.2207-.1545-.1177-.6548-.8681-.6253-1.0558.0294-.2061.3016-.3311.4341-.4893.0442-.0552.2391-.3606.3053-.3054.0846-.033.1545-.0221.2428.0037.5517.1324.9563-.0736,1.4419-.2795.1287-.0442.2538-.0846.3826-.1288.0367-.0221.2023-.0699.1324-.1324-.1361-.3421-.5959-.4819-.835-.7799-.1766-.2207-.4451-1.4016-.1876-1.5745.3494-.2354,1.2028,1.2987,1.4088,1.4826.1839.0589.3124.2612.5153.1361.0109.011.0252.0221.0361.0294.317-.2502.6298-.504.9459-.7542.2868-.195.5736-.39.8604-.5849.353-.3274.7061-.6512,1.0558-.9786.1325-.1287.2574-.3715.4084-.4451.1434-.0736.364-.0037.5224-.0074v.0074Zm-3.3988,5.8566c.6726.7725,1.0114,2.314.0696,3.0461-.2021.1545-.3858.2759-.6398.228-1.0227-.1876-.3422-2.1153-.1032-2.7076.052-.1214.026-.2906.1359-.401.1367-.1398.3681-.1141.5375-.1656Z" style="fill:#2b6caf; fill-rule:evenodd; stroke-width:0px;"/><path d="m16.6665,14.5166c.0772-.0368.2097-.1141.2538-.0368.2133.1288.3863.3237.5885.4672.1803.1287.4194.1324.607.2465.206.1251.9747.8387.9711,1.0852-.0074.3532-.3016.3201-.4783.5519-.1287.1655-.114.4047-.1471.5996-.0148.0772-.0626.2318-.0221.3091-.195-.0074-.3458-.1693-.4672-.3311-.206-.2722-.2428-.721-.3715-1.0153-.1508-.1839-.298-.3679-.445-.5518-.1435-.184-.5076-1.1037-.4892-1.3244Zm5.9074-1.913c.2391-.103.5407-.2943.7798-.2722.1177.011.206.1104.2722.2134.2502.3825.1067.8755-.2759,1.1.0074.0147.0184.0294.0257.0404.1324.0074.3274.0883.3973.2097.206.2391.2832.6034.2869.8756,0,.1545-.0442.3899.0441.5371.0148-.0074.0294-.0185.0405-.0221.0073.0148.0184.0294.0257.0405.0882-.0736.423-.3201.4304-.3054.0257-.0147.0552-.0331.0809-.0478-.0074-.0147-.0148-.0257-.0257-.0404.1287-.1325.1876-.3422.3458-.4489.434-.2906,1.5927-.4488,1.692.2759-.0185.0809-.0331.1619-.0516.2428-.1876.6732-.9563.7357-1.5118.9528-.0478.0185-.2281.0699-.1876.1398-.0957.2465-.3237.3164-.5297.504-.0809.0883-.1582.1766-.2428.2649-.3752.3458-.9196.7615-1.4088.9896-.2097.0994-.4597.0111-.6069.0957-.0257-.0405-.0478-.0809-.0735-.1251.0589-.1361.0919-.7174.206-.7836.3348-.0221.6143-.3054.7357-.5812.0294-.0736.0294-.1987.1103-.2428-.0919-.1067-.0515-.2759-.136-.4194.0184-.0699-.0037-.2171.0699-.2612-.4819-.3384-.298-1.1404-.9527-.3936-.0773.0846-.298.4267-.2355.5371-.1397.0404-.2795.0809-.4193.1214-.2796.0294-.6548-.1693-.8387-.3679-.0735-.0074-.1728-.0809-.2243-.1472-.0184-.0846-.0368-.1655-.0589-.2501.1986-.0442.4598.0037.6547-.1104.2097-.1214.309-.4304.4009-.6291.2355-.5077.5334-1.1882,1.0631-1.501.0478-.0478.0956-.0919.1398-.1361-.0074-.0147-.0148-.0257-.0258-.0404l.0037-.0148Zm-4.0277,5.4042c.1213.0037.217.0699.32.114.0919.0294.1876.0626.2795.0957.1655.0846.2502.2795.3458.4525.3053.5629.6622.8682,1.2727.6549.0662-.0221.3936-.1619.3568-.2281.3126-.3458.3936-1.122.1545-1.5304.0478-.0809.0809-.2134.1728-.2686.0589.39.1214.7762.1803,1.1662.0699.5775.3052,1.0668-.1251,1.5745-.1287.0956-.2538.195-.3825.2943-.1509.1141-.3936.3311-.5922.3899-.2648.0772-.5444-.0772-.7357-.2538-.0993-.092-.1765-.2612-.2538-.39-.3605-.6144-1.0446-1.3648-1.0005-2.0711h.0074Z" style="fill:#2b6caf; fill-rule:evenodd; stroke-width:0px;"/><path d="m38.5747,5.8236c.2685-.0147.949-.2391,1.0704.0736.0515.1361-.0626.3348-.1508.4304-.4304.4341-1.4235.8572-1.6774,1.4495-.0956.2244.4487.7248.5113,1.0669.0809.4488-.3126.9087-.4819,1.2949-.0368.0809-.1104.2135-.0883.3091.1398-.0441.6585-.1178.6327-.2354.0147-.0037.0331-.0074.0478-.0111.114-.0074.2244-.0147.3384-.0221.0846-.0883.2943-.309.4157-.3348.0037.0148.0074.0331.011.0479.5407-.3348,1.3316-.7137,1.9128-.2355.0809.1141.1618.2281.2391.3422.1287.1508.2097.412.0257.5665-.2722.2244-.7026.2538-1.0815.3421-.4487.103-.754.3274-1.2249.4267-.2943.0589-.5922.1141-.8902.1729h-.5406c-.2685.0331-.5297.1324-.7835.2134-.1508.0699-.298.1435-.4487.2134-.3385.1325-.6731.2207-.9822.3716-.1434.0662-.2464.2354-.4377.2612-.3053.0367-1.4272-.1693-1.6442-.3311-.0552-.0772-.1067-.1508-.1618-.228-.0257-.0479-.1471-.3017-.0478-.3237.0037.0147.0074.0331.011.0478.6842-.103,1.4015-.2023,2.0746-.3495-.0074-.0294-.0147-.0626-.0184-.092.0515.0074.0993.0111.1508.0185.1655-.0515.3348-.103.5039-.1582.114-.1398.4157-.3348.6033-.3752.1104-.3606.3384-.9197.2538-1.3244.0442-.1067.0111-.3384-.0699-.4304-.1508-.1765-.4598-.2171-.6621-.309-.4635-.2134-1.0042-.6769-1.2028-1.1441-.0294-.0662-.0184-.1839.0699-.206.228.1472.618.1655.8939.0589.0441-.0184.0441-.0221.0551.0294.39-.2244.8203-.5886,1.2691-.71.0589-.0184.092,0,.0772-.0699.3568-.1692.5333-.3311.8056-.5629.0037.0147.0074.0331.0111.0478.0294-.0074.0625-.0147.0919-.0184-.0037-.0147-.0073-.0294-.011-.0478.1765-.0883.3531-.1729.5297-.2612v-.0037Z" style="fill:#2b6caf; fill-rule:evenodd; stroke-width:0px;"/><path d="m8.0886,44.3076l-3.8144-2.1264.2391,1.718c.0367.2649.114.4562.2354.5775.1213.1214.3421.2135.6621.2649v.1067l-.9932-.0221-.4708-3.4102.0993-.0185,3.7078,2.0823-.1839-1.3391c-.0294-.2207-.0736-.3789-.1288-.4709-.0552-.0919-.1287-.1582-.217-.1949-.0882-.0368-.2427-.0589-.4671-.0626l-.0148-.1178.927-.0809.4267,3.0976-.0074-.0037Zm-1.3352,1.9129l.4157,1.913,1.0262-.2943c.1839-.0515.3016-.0993.3531-.1435.0405-.033.0699-.0882.0846-.1582.0221-.0993.0257-.1986.0037-.2943l-.0331-.1434.0993-.0294.3826,1.7584-.0993.0294-.0331-.1472c-.0221-.0956-.0626-.1839-.1214-.2575-.0404-.0589-.0956-.0883-.1582-.0956-.0625-.0074-.1802.0147-.3567.0662l-2.3174.6622c-.1802.0515-.298.0994-.3494.1435-.0404.0331-.0699.0846-.0882.1582-.0221.103-.0257.2024-.0037.298l.033.1472-.0956.0294-.3826-1.7584.0994-.0294.033.1435c.0368.1693.1067.2795.2097.331.0662.0331.2097.0221.423-.0404l1.0924-.3127-.4157-1.913-1.0924.3127c-.1802.0515-.298.0994-.3494.1435-.0404.0331-.0699.0883-.0846.1619-.0221.0993-.0257.195-.0036.2943l.033.1508-.0993.0294-.3826-1.7621.0994-.0294.033.1435c.0368.1692.1067.2795.2097.3347.0662.0331.2097.0185.423-.0441l2.3173-.6622c.1839-.0515.3016-.0994.3531-.1435.0405-.0331.0699-.0846.0883-.1582.0221-.0993.0221-.1987.0037-.298l-.0331-.1435.0993-.0294.3826,1.7621-.0993.0294-.0331-.1509c-.0221-.0956-.0626-.1839-.1214-.2575-.0404-.0552-.0956-.0846-.1582-.0957-.0625-.0073-.1839.0111-.3604.0626l-1.0263.2943v-.0074Zm2.6153,3.8996l-1.3756.5738.2795.8756c.0736.228.1509.3679.2355.4194.1103.0699.2685.0663.4708-.0037l.0331.1067-1.2102.504-.0331-.1067c.1618-.0993.2611-.1692.298-.2171.0478-.0588.0772-.136.0846-.2317.0074-.0956-.0148-.2244-.0662-.3899l-.2795-.8756-1.1476.4783c-.1546.0625-.2465.1103-.2722.1397-.0294.0294-.0442.0663-.0552.1141-.0074.0478.0074.1251.0404.2354l.2133.6769c.0699.2244.1361.3826.1987.4745.0589.092.1435.1656.2538.2281.1435.0772.3458.1361.5996.1729l.0368.1178-.9822.0221-.9747-3.0718.0956-.0405.0442.1398c.0294.092.0772.1729.1434.2428.0478.0515.103.0772.1618.0772.0626,0,.1766-.0367.3458-.1067l2.2585-.9418c.2207-.0919.3494-.1729.3826-.2465.0441-.0993.0441-.2317-.0111-.3936l-.0441-.1398.0956-.0404.9748,3.0718-.7467.3606-.0368-.1141c.1692-.1178.2796-.2134.3347-.2943.0516-.0772.0809-.1729.0846-.2869,0-.0883-.0294-.2318-.0919-.4304l-.3458-1.0926.0073-.0074Zm1.5486,4.1349l.0919-.0478.6695,1.6445-.0919.0478-.0552-.1398c-.0626-.1582-.1509-.2501-.2612-.2795-.0699-.0184-.2097.0257-.4082.1361l-1.6406.8755c-.2538.1361-.4709.2134-.6511.2317-.1839.0221-.3641-.0147-.5407-.1067-.1802-.0919-.3126-.2501-.4046-.4672-.0735-.1766-.0919-.3385-.0551-.4819.0367-.1435.103-.2391.2023-.2943.0809-.0442.1508-.0515.2133-.0257.0772.0367.1324.0956.1655.1765.0257.0589.0294.1251.0147.1913-.0147.0662-.0846.1766-.2023.3311-.0699.0919-.092.1692-.0662.2391.0221.0515.0662.0845.1398.0993.0735.0147.1766-.0148.3163-.0883l2.2916-1.225c.1691-.092.2758-.1619.32-.2171.0331-.0404.0515-.0993.0589-.1765.0073-.103-.0074-.1987-.0479-.2906l-.0552-.1398-.0036.0073Zm-1.5413,5.3527l-.0883.0552-.743-1.604.0883-.0551.0626.1324c.0699.1545.1618.2427.2758.2649.0699.0147.206-.0405.4009-.1582l2.1113-1.2876c.1655-.0994.2685-.1803.309-.2355.0331-.0441.0478-.103.0515-.1765,0-.103-.0184-.2023-.0589-.2906l-.0625-.1324.0882-.0552.743,1.604-.0882.0552-.0626-.1361c-.0699-.1545-.1618-.2391-.2722-.2612-.0735-.0148-.206.0367-.4046.1545l-2.1113,1.2876c-.1655.0993-.2685.1802-.3089.2354-.0331.0441-.0478.103-.0515.1802,0,.1031.0184.1987.0588.287l.0626.1361Zm2.5013,2.1705l-.7798-1.3759-.6253.125c-.1545.0294-.2611.0663-.32.1104-.0478.0368-.0735.092-.0809.1693-.0074.0772.0331.206.1177.3862l-.0846.0626-.6363-1.1183.0846-.0626c.1067.1324.1912.206.2538.2208.125.0368.3274.0221.6143-.0368l3.2627-.6475.0515.092-1.8796,3.1601c-.1509.2539-.2355.4451-.2502.5702-.0148.1287.0147.2686.0883.4194l-.0846.0626-.7946-1.4053.0846-.0625c.0883.1361.1618.217.2244.2391.0626.0257.1213.0184.1692-.0221.0662-.0515.1508-.1655.2575-.3421l.3237-.5481.0037.0037Zm.1287-.1987l.9122-1.5378-1.6037.3128.6915,1.2213v.0037Zm2.63-.0552l.6326.894-.732,4.0173,1.659-1.5378c.1765-.1656.2721-.2906.2832-.3752.0147-.1141-.0221-.2391-.1104-.3679l-.0809-.1141.0772-.0736.8093,1.1478-.0772.0736-.0809-.1177c-.0993-.1398-.206-.2024-.32-.195-.0699.0074-.1876.0846-.3458.2354l-2.4241,2.2477-.0625-.0882.7797-4.3189-1.7729,1.6444c-.1766.1656-.2722.287-.2833.3716-.0147.1177.0221.2391.1104.3679l.0809.1177-.0772.0736-.8093-1.1479.0772-.0736.0809.1141c.0994.1398.206.206.3237.195.0699-.0074.1876-.0846.3458-.2355l2.0011-1.8541c.0294-.1876.0441-.3201.0404-.3973-.0037-.0773-.0257-.1766-.0662-.298-.0221-.0589-.0663-.1361-.1325-.2318l.0773-.0736h-.0037Zm5.0246,6.39l-.7724,1.008-.0662-.0772c.1435-.3128.2133-.5886.2133-.8314,0-.3495-.1213-.6695-.3604-.9529-.3274-.3899-.71-.5371-1.1476-.4414-.3678.0809-.71.2943-1.0226.6401-.2538.2795-.4378.5923-.5517.9381-.1141.3458-.1435.6622-.0883.9528.0552.2906.1655.5334.3274.7247.0956.1141.1986.2061.3126.2833.1141.0772.2354.1361.3641.1802l.7688-.8535c.1324-.1472.2097-.2539.2317-.3237s.0221-.1398.0037-.2134c-.0184-.0736-.0809-.1692-.1839-.2943l.0735-.0809.9968,1.1809-.0735.0809-.0479-.0552c-.0993-.1178-.2023-.1582-.3052-.1287-.0736.0221-.1803.114-.3237.2722l-.8129.9013c-.228-.0846-.4304-.1876-.6106-.3127-.1802-.1251-.3568-.2907-.5297-.4967-.4966-.5886-.71-1.2176-.6364-1.8909.0552-.504.2428-.9344.5665-1.2913.2355-.2576.5113-.4415.835-.5519.3826-.1287.7578-.136,1.1182-.0221.3016.0957.5812.298.8387.6034.092.1104.1729.2208.2317.331.0589.1067.1324.2759.2207.5004.0442.114.0772.1839.103.2134s.0552.0404.0957.0367c.0404-.0036.0956-.0441.1655-.1103l.0699.0845-.0037-.0037Zm3.0788,3.1712l.0626-.0919,1.0336.9233-.0625.092-.1104-.0994c-.1141-.103-.2391-.125-.3752-.0699-.0663.0257-.1619.1287-.287.3127l-.9232,1.3538c-.2281.3347-.4341.5702-.618.7026-.1839.1325-.4083.1913-.6658.1693-.2611-.0221-.537-.1619-.8276-.423-.32-.2869-.5187-.5629-.5959-.8388-.0772-.2722-.0809-.5481-.0037-.824.0552-.1876.217-.4819.4929-.8866l.8901-1.306c.1398-.206.206-.3606.2024-.4709-.0074-.1067-.0626-.2134-.1729-.309l-.1104-.0993.0626-.092,1.2617,1.1294-.0626.092-.1104-.0994c-.1213-.1067-.2354-.1434-.3458-.0993-.0772.0257-.1765.1361-.3053.3201l-.9932,1.4568c-.0883.1287-.1802.2869-.2722.4745-.092.1876-.1435.3495-.1545.493-.0111.1434.0147.2906.0772.4414.0626.1545.1655.2943.3163.4304.1913.1693.3936.2759.6106.3164.2133.0405.4009.0111.5591-.0883.1582-.0993.3568-.3274.5996-.6805l.9233-1.3538c.1434-.2097.2097-.3568.206-.4451-.0074-.1214-.0662-.2317-.1766-.3311l-.1103-.0993h-.0148Zm.949.802l.8534.6107.4487,4.0724,1.1293-2.0748c.1213-.2208.1728-.3752.1618-.4599-.0184-.1141-.0883-.2171-.2097-.3054l-.1104-.0772.0552-.0993,1.0924.7836-.0552.0993-.1104-.0809c-.1324-.0956-.2501-.1178-.3568-.0626-.0662.0331-.1508.1509-.2611.3495l-1.6515,3.0314-.0846-.0589-.4892-4.3777-1.2065,2.2146c-.1213.2208-.1765.3715-.1619.4599.0184.1178.0883.2171.2097.3054l.1103.0809-.0551.0994-1.0925-.7799.0515-.0993.1067.0772c.1324.0956.2538.1177.3605.0662.0662-.0331.1508-.1508.2611-.3495l1.3647-2.5015c-.0257-.1876-.0515-.3164-.0735-.39-.0257-.0736-.0735-.1582-.1471-.2575-.0368-.0478-.0994-.103-.1913-.1692l.0552-.0993-.0037-.0074Zm3.3951,6.964l-.0441.103-1.4272-.7983.0441-.103.1177.0663c.1361.0772.2574.0845.3568.0294.0662-.0367.1471-.1729.2427-.401l1.0483-2.4611c.0809-.1913.1251-.3274.1324-.401.0037-.0552-.0147-.1141-.0478-.1765-.0515-.0846-.1177-.1509-.1986-.195l-.1177-.0662.0441-.1031,1.4272.7984-.0441.103-.1214-.0663c-.1361-.0772-.2538-.0846-.3531-.0294-.0662.0368-.1508.1693-.2464.3973l-1.0483,2.4612c-.0809.1912-.1251.3274-.1324.401-.0037.0552.0147.114.0515.1766.0515.0846.1141.1508.1949.195l.1214.0662v.0037Zm5.4219-1.8026l-.0405.1067c-.1287-.033-.2354-.033-.3237,0-.125.0516-.2575.1583-.3972.3164l-2.4204,2.7443-.0919-.0441-.0294-3.9841c-.0037-.2061-.0074-.3311-.0221-.3826-.0185-.0809-.0552-.1508-.103-.2134-.0479-.0626-.1214-.125-.2244-.1839l.0404-.1067,1.3904.6768-.0404.1067c-.1655-.0588-.2759-.0772-.3421-.0588-.0626.0221-.1067.0662-.1324.1361-.0368.0956-.0515.2649-.0515.504l.0184,2.7112,1.6406-1.8688c.1618-.1839.2575-.3201.2906-.4047.0221-.0552.0147-.1214-.0148-.1949-.0294-.0736-.0993-.1509-.206-.2281-.0074-.0074-.0221-.0147-.0404-.0294l.0404-.1067,1.052.5114.0074-.0074Zm1.0225.5408l-.4267,1.604.7761.2722c.2024.0699.3458.0846.4304.0368.114-.0589.2097-.2024.2796-.4304l.0956.0331-.3752,1.4126-.0956-.0331c.0294-.206.0367-.3421.0294-.4047-.0111-.0809-.0515-.1545-.1104-.2171-.0589-.0662-.1655-.125-.3126-.1765l-.7762-.2722-.3567,1.3354c-.0478.1803-.0699.2906-.0662.3348.0037.0441.0184.0809.0479.1177.0294.0331.0919.0699.1912.1031l.5996.2097c.1987.0699.3494.1067.4487.103.0994,0,.2024-.0331.3127-.0957.1397-.0845.3016-.2354.4819-.4414l.103.0368-.5775.9087-2.7256-.9565.0294-.1104.125.0442c.0846.0294.1692.0331.2538.0147.0662-.011.1141-.0478.1508-.103.0368-.0589.0809-.1839.1324-.3826l.7026-2.634c.0699-.2576.0883-.423.0589-.5004-.0405-.103-.1361-.1765-.2796-.228l-.125-.0441.0294-.1104,2.7293.9565-.1987.9013-.103-.0367c.0221-.2244.0184-.3863-.0037-.4819-.0221-.0957-.0735-.1803-.1471-.2502-.0626-.0552-.1803-.1141-.3568-.1729l-.9711-.3385v-.0037Zm5.1497,5.4851l-.9711-.217-.9012-2.2184c-.092-.0184-.1655-.033-.2244-.0441-.0221-.0037-.0478-.0111-.0735-.0184-.0257-.0074-.0552-.0148-.0809-.0221l-.206,1.2103c-.0442.2613-.0478.4304-.0074.5041.0515.1067.1472.1729.2833.2023l.1434.0331-.0184.1141-1.5559-.3459.0184-.114.1361.0294c.1545.033.2722,0,.3568-.0994.0478-.0552.0919-.2023.1324-.4377l.4561-2.6892c.0441-.2612.0478-.4304.0074-.504-.0552-.1067-.1509-.1729-.287-.206l-.1361-.0294.0185-.1141,1.3242.2943c.3863.0846.6658.1802.835.2869.1729.103.309.2576.4046.4599.0993.2023.125.423.0846.6622-.0442.2539-.1545.4599-.3311.618-.1765.1545-.423.2391-.743.2465l.548,1.3611c.1251.3128.2428.5261.3494.6438.1104.1178.2612.2097.4524.2796l-.0184.114h.0037Zm-2.218-2.7149c.0331.0074.0626.0147.0883.0221s.0441.0111.0588.0147c.3458.0773.6217.0516.8276-.0845.206-.1324.3311-.3311.3752-.5997.0442-.2612.0074-.4856-.1067-.6806-.114-.1949-.2869-.3164-.5223-.3716-.103-.0221-.2465-.033-.4304-.033l-.2943,1.729.0037.0037Zm5.3446-1.4053l-.1104,1.4605-.0993-.0111c-.011-.2832-.0515-.5114-.125-.6879-.0699-.1766-.1839-.3201-.3311-.4304-.1471-.1141-.3053-.1802-.4708-.195-.1876-.0184-.3494.0331-.4819.1509-.1324.1177-.206.2649-.2207.4304-.0111.1287.0221.2501.0883.3642.0993.1693.3531.401.7541.7027.3273.2465.5517.4341.6695.5592.1177.1251.206.2686.2611.4304.0552.1619.0772.3237.0662.4929-.0257.3201-.1545.585-.3862.7947-.2355.2097-.5224.298-.8607.2649-.1067-.0111-.206-.0294-.3016-.0589-.0552-.0147-.1692-.0663-.3421-.1472-.1729-.0845-.2796-.1287-.3274-.1324-.0441-.0036-.0809.0074-.1104.0368-.0294.0294-.0515.092-.0735.1876l-.0993-.0111.1104-1.4494.0993.011c.0257.3091.0699.5408.1398.699.0699.1582.1802.2943.3384.4121.1545.114.3311.1839.526.2023.2281.0221.412-.0257.5518-.1508.1398-.1251.2207-.2796.2354-.4672.0074-.103-.0074-.2097-.0515-.3237-.0405-.1104-.114-.2171-.2097-.3201-.0662-.0699-.2502-.2208-.5481-.4562-.3016-.2354-.5113-.4194-.6363-.5518-.125-.1361-.2133-.2759-.2722-.4304-.0589-.1545-.0809-.3164-.0662-.4893.0221-.3017.1434-.5518.3641-.7505.2207-.1986.4856-.2832.7982-.2501.195.0184.4009.0956.6106.228.0957.0626.1692.0956.2097.0993.0478.0037.0882-.0073.1213-.0367.0331-.0294.0626-.092.0883-.1876l.0993.011h-.0074Zm2.1776,4.3373l-.0037.1141-1.5854-.0626.0037-.114.1324.0037c.1545.0073.2648-.0405.3385-.1398.0441-.0663.0735-.2244.0809-.4782l.0845-2.737c.0074-.2134,0-.3569-.0221-.4267-.0184-.0515-.0515-.0994-.1067-.1398-.0772-.0515-.1618-.0809-.2501-.0846l-.1325-.0037.0037-.1177,1.5854.0625-.0037.1178-.1324-.0037c-.1508-.0074-.2611.0405-.3347.1398-.0478.0662-.0772.2244-.0846.4782l-.0846,2.737c-.0074.2134,0,.3569.0221.4267.0184.0515.0552.0993.1104.1398.0772.0515.1582.0809.2465.0846l.1324.0036Zm3.3693-4.374l.1177.9859-.103.011c-.0331-.1729-.0699-.2943-.1104-.3679-.0662-.1141-.1472-.195-.2428-.2428-.0993-.0478-.2244-.0625-.3752-.0478l-.5187.0515.2465,3.2264c.0184.2612.0589.4194.1104.4782.0735.0809.1839.1141.3274.0993l.1287-.011.0074.114-1.5633.1582-.0074-.114.1324-.0148c.1546-.0147.2612-.0809.32-.195.0331-.0699.0442-.2244.0257-.4598l-.2464-3.2263-.4451.0441c-.1728.0184-.2943.0442-.3641.0809-.092.0479-.1655.1324-.2244.2502-.0589.1178-.0883.2759-.0846.4672l-.103.011-.0331-.997,3.0089-.3016h-.0037Zm2.7036-.4525l1.2691-.2833.0184.1141-.0699.0147c-.0478.0111-.1104.0479-.1913.1141-.0809.0663-.1508.1508-.2097.2575-.0589.1031-.1251.2686-.1987.4893l-.6069,1.7732.1765,1.0448c.0442.2575.0957.4084.1545.4636.0809.0699.195.0919.3422.0589l.1177-.0258.0184.1141-1.5413.3421-.0184-.114.1287-.0294c.1545-.0331.2538-.1104.3016-.2318.0294-.0736.0221-.228-.0184-.4598l-.1655-.986-1.2911-1.523c-.1509-.1766-.2538-.2869-.3053-.331-.0515-.0405-.1471-.0846-.2906-.1251-.0404-.0147-.0919-.011-.1618.0037l-.0184-.1141,1.5523-.3458.0184.1141-.0809.0184c-.0846.0184-.1582.0589-.2207.1178-.0625.0626-.0882.1361-.0699.228.0111.0736.0883.195.2317.3606l.9859,1.1735.4928-1.4421c.0735-.2171.103-.3715.0883-.4672-.0111-.0588-.0331-.1067-.0662-.1434-.033-.0405-.0772-.0663-.1287-.0809-.0515-.0148-.1287-.0111-.2243.011l-.0184-.114v.0037Zm4.0535-1.3024c.4598-.1619.9122-.103,1.3536.1802.4451.2833.7431.7211.9049,1.3207.1655.618.1324,1.1883-.0994,1.7143-.2317.5261-.5885.8719-1.0704,1.0411-.4856.1693-.949.1141-1.3867-.1656-.4377-.2795-.7393-.7357-.9085-1.3648-.1729-.6438-.1214-1.236.1545-1.7768.2391-.4709.5885-.7836,1.052-.9455v-.0037Zm.0074.2354c-.3164.1104-.5333.3348-.6548.6695-.1471.4194-.1361.9492.0368,1.5967.1765.6622.4377,1.1294.7798,1.398.2611.206.548.2538.8607.1434.3311-.1177.5665-.3605.7026-.7357.1361-.3716.1214-.8792-.0515-1.5194-.1839-.6916-.4414-1.1698-.7724-1.4273-.2648-.2061-.5628-.2465-.9012-.1287v.0036Zm2.9206-1.1404l.5701,1.5341.6217-.3017c.1435-.0699.2317-.1582.2722-.2612.0404-.103.0294-.2686-.0257-.493l.0919-.0441.4892,1.3206-.0919.0442c-.0589-.1509-.1177-.2539-.1766-.3091-.0589-.0552-.125-.0882-.195-.0956-.0699-.0074-.1618.0184-.2758.0736l-.6217.3017.4524,1.225c.0735.1987.1324.3237.1766.3752.033.0405.0845.0663.1508.0736.0919.0111.1765-.0036.2575-.0441l.1251-.0589.0404.1067-1.4603.7101-.0405-.1067.1214-.0589c.1397-.0699.2243-.1656.2538-.2906.0184-.0809-.0184-.2391-.103-.4709l-.9343-2.52c-.0735-.1986-.1324-.3237-.1766-.3752-.033-.0405-.0845-.0626-.1471-.0736-.0883-.011-.1729.0037-.2575.0442l-.1214.0588-.0404-.1067,2.5343-1.2324.3494.8425-.0883.0441c-.1104-.1619-.2097-.2686-.3016-.3274-.0882-.0589-.1839-.0846-.2832-.0809-.0993.0036-.2354.0478-.4156.1324l-.7504.3642Zm5.1644-3.344l.4928.8203-.0882.0626c-.0994-.1361-.1766-.2244-.2428-.2686-.103-.0699-.2097-.0993-.3127-.0883-.1067.0074-.2243.0589-.3531.1509l-.4414.3164,1.4971,2.748c.1214.2208.217.3421.2869.3679.0994.0331.2097.0037.3311-.0809l.1104-.0772.0552.0994-1.3315.9528-.0515-.0993.1103-.0809c.1324-.0957.2024-.2097.206-.3421.0037-.0809-.0515-.2208-.1582-.4231l-1.4971-2.748-.3789.2686c-.1472.103-.2428.1913-.2907.2612-.0625.092-.0956.206-.0993.3421-.0037.1361.0331.2907.1104.4599l-.0883.0626-.423-.8719,2.5602-1.8357-.0037.0037Zm1.3021-.7321l.8387,1.3722.6658-.5334c.1728-.1398.2685-.2612.2906-.3679.0294-.1398-.0111-.3128-.125-.5187l.0809-.0663.7393,1.2103-.0809.0663c-.125-.1509-.2097-.2428-.2611-.2759-.0626-.0368-.1361-.0478-.217-.0331-.0809.0148-.1876.0736-.3126.1729l-.6658.5334.6988,1.1441c.0957.1545.1582.2428.1876.2649.0331.0221.0699.0331.1104.0294.0405-.0037.1067-.0404.1876-.1067l.515-.412c.1692-.1361.2869-.2502.3494-.3385.0626-.0882.103-.2023.125-.3384.0294-.1802.0257-.4158-.0073-.7064l.0882-.0699.2722,1.0815-2.3358,1.8762-.0588-.0956.1067-.0846c.0699-.0589.125-.1324.1655-.2207.0331-.0662.0368-.1324.0221-.2023-.0184-.0699-.0773-.1876-.1803-.3569l-1.3793-2.2551c-.1361-.2207-.2354-.3421-.3053-.3605-.0956-.0257-.206.0111-.331.1141l-.1067.0846-.0589-.0957,2.3358-1.8762.5002.7321-.0883.0699c-.1434-.1582-.2538-.2538-.3347-.2943-.0809-.0367-.1692-.0441-.2648-.0221-.0736.0221-.1876.092-.3385.2134l-.8313.6659h.0037Zm4.1268-4.1828l.8906,1.0227-.0629.0626c-.3312-.2391-.6323-.3532-.8973-.3421-.2685.0147-.5113.1324-.732.3531-.1839.184-.3126.4047-.3789.6622-.0662.2575-.0552.5444.0368.8682.0919.3201.2722.6586.5407,1.008.2206.2906.4486.5003.6918.6327.2424.1324.4855.1729.7355.1251.2499-.0478.478-.1766.6843-.3862.1803-.1802.3086-.3826.3782-.6107.0704-.2281.0889-.5556.0554-.986l.0998-.0184c.0772.423.0696.7946-.0151,1.1146-.0881.3201-.2575.6034-.5149.8609-.4637.4599-.9711.6217-1.5229.4819-.4118-.103-.7687-.3532-1.0666-.7505-.2428-.3201-.4009-.6768-.4819-1.0668-.0772-.3936-.0625-.7689.0442-1.1367.1067-.3642.2906-.6769.5517-.9344.2023-.2024.445-.3422.7245-.4268.0847-.0221.14-.0478.1618-.0699.0369-.0368.0587-.0846.0629-.1398.0034-.0772-.0151-.1619-.0587-.2538l.073-.0699Zm2.3137.2649l1.1958-1.4163-.7614-.8424c-.1359-.1509-.2357-.2391-.2943-.2686-.0444-.0221-.099-.0221-.1652,0-.0847.0294-.1585.0809-.2214.1545l-.0914.1067-.0738-.0809,1.0994-1.306.0738.0809-.0914.1067c-.0595.0699-.1031.1545-.1291.2538-.0185.0699-.0151.1398.0109.2024.0293.0625.1065.1692.239.3127l1.7183,1.9019c.1359.1509.2315.2391.2902.2649.0444.0221.0998.0221.1619,0,.088-.0294.1618-.0809.2206-.1545l.0922-.1067.0738.0809-1.1002,1.306-.073-.0809.0914-.1067c.1065-.125.151-.2501.1325-.3789-.0109-.0845-.0956-.2134-.2541-.3899l-.8093-.8977-1.195,1.4164.8093.8976c.1359.1508.2315.2391.2902.2649.0444.0221.0998.0221.166,0,.0847-.0294.1577-.0809.2206-.1508l.0922-.1104.073.0809-1.0994,1.306-.0738-.0809.0923-.1067c.1065-.125.1509-.2538.1359-.3826-.0109-.0809-.0956-.2134-.2575-.3862l-1.7175-1.9019c-.1367-.1509-.2356-.2391-.2943-.2686-.0444-.0221-.0998-.0221-.1618,0-.0881.0294-.1618.0846-.2206.1545l-.0922.1067-.0738-.0809,1.1002-1.306.073.0809-.0914.1104c-.0587.0736-.1031.1545-.1291.2538-.0185.07-.0143.1361.0151.2024.026.0662.1065.1692.2356.3164l.7606.8424h.0075Zm.7908-3.7413l.5887-.9307,3.5758-.2281-1.7258-1.4384c-.1836-.1545-.3162-.2244-.39-.2171-.1023.0111-.1946.0846-.2793.2207l-.0772.1178-.0813-.07.7581-1.1956.0813.0699-.078.1214c-.0914.1434-.1174.2795-.0805.4047.0218.0772.1174.1839.2868.3237l2.5233,2.1006-.0587.092-3.8442.2538,1.8433,1.5341c.1836.1545.3128.2244.3858.2171.1031-.0111.1954-.0846.2801-.2171l.0772-.1214.0805.0663-.7573,1.1919-.0813-.0662.0738-.1178c.0922-.1471.1216-.2832.0805-.4083-.0218-.0773-.1174-.184-.2868-.3237l-2.0814-1.7328c-.166.0148-.2801.0331-.3463.0589-.0662.0257-.1434.0736-.2348.1508-.0444.0368-.0998.1067-.1619.2061l-.0813-.0699.0109.0074Zm3.3661-5.7426c.239-.4783.6063-.7873,1.0994-.9271s.9753-.0552,1.4457.2575c.4856.3237.8017.7652.9451,1.3318.1434.5665.0922,1.0963-.1619,1.5966-.2533.504-.6248.824-1.1103.9638-.4856.1361-.9787.0405-1.4793-.2906-.5073-.3384-.8235-.8094-.9451-1.42-.1065-.5297-.0369-1.0337.2063-1.5156v.0037Zm.1468.1655c-.1652.3274-.1912.6622-.0805,1.0044.1392.423.4629.802.9745,1.1404.5225.3458.9896.4856,1.4013.4158.3128-.0552.5518-.2428.7137-.5665.1727-.3458.1987-.7064.0771-1.0889-.1208-.3789-.4336-.7358-.9417-1.0705-.5476-.3606-1.0189-.5078-1.4122-.4378-.3162.0552-.5594.2612-.7355.6107l.0034-.0074Zm4.7272-4.0173l.0545-.0846.7765.8167-1.2101,2.9762-.0922-.0478.0587-.1435c.0663-.1619.0663-.3017.0042-.423-.0369-.0699-.151-.1545-.3422-.2539l-2.1627-1.1552c-.2097-.1103-.3497-.1545-.4235-.1287-.1031.0331-.1836.1251-.2424.2686l-.0587.1435-.0922-.0478.7061-1.7401.0922.0478c-.0847.2023-.125.3532-.125.4562,0,.0993.0218.1802.0621.2391.0403.0589.1619.1398.3606.2465l2.1074,1.1257c.1367.0736.2357.1067.3019.1067.0444-.0037.0847-.0257.1174-.0626.0369-.0405.1031-.1802.2063-.4304l.114-.2796c.1216-.2943.1837-.5113.1946-.6511.0117-.1398-.0143-.2833-.0696-.4341-.0554-.1508-.1694-.3311-.338-.5371v-.0074Zm-1.6596-3.6383c.166-.5187.4788-.8939.9417-1.1294.4637-.2354.9527-.2464,1.4642-.033.53.2207.9048.5959,1.1329,1.122.2281.526.2541,1.0631.0847,1.6039-.1727.5481-.4931.9381-.9493,1.1698-.4596.2317-.9602.2354-1.4969.0074-.5518-.2318-.9342-.6328-1.1481-1.2103-.1836-.5003-.1912-1.0117-.0252-1.5304h-.0042Zm.1694.1324c-.114.3569-.0881.6916.0738,1.0044.2021.3862.5811.6953,1.133.927.5661.2354,1.0483.2796,1.4416.1287.3019-.1177.5082-.3495.618-.7026.1174-.3752.0881-.7358-.088-1.0853-.1769-.3495-.5409-.6401-1.0885-.8682-.5929-.2464-1.0818-.2979-1.4567-.1508-.3019.1178-.5116.3679-.6331.7468Zm1.4239-5.9854l1.1548.2171-.0218.1067c-.3061.0257-.5484.1067-.7287.2354-.2575.1839-.4302.4709-.5149.8535-.114.5223-.0218.9749.2834,1.3502.2574.3164.5954.5334,1.0147.6548.3421.0993.6734.1104.9862.0405.3162-.0699.5661-.2098.7505-.4194.1837-.206.3053-.4414.364-.699.0327-.1508.0478-.3016.0444-.4562-.0042-.1508-.0226-.3016-.0595-.4525l-1.0373-.298c-.1795-.0515-.3011-.0699-.364-.0552-.0621.0148-.1141.0516-.1577.1104-.0444.0552-.0847.1693-.1216.3348l-.0998-.0294.3463-1.593.0989.0294-.0142.0772c-.0335.1582-.0117.2796.0662.3642.0545.0589.1795.1141.3715.1692l1.0994.3128c.0587.2649.0881.5187.0922.7579.0034.2427-.026.5003-.0889.7762-.1728.7946-.5258,1.3354-1.0592,1.6223-.4009.2134-.8202.2575-1.2546.1324-.3162-.092-.5988-.2649-.8529-.5187-.2977-.3053-.504-.6622-.6105-1.0778-.0889-.3458-.0889-.7247.0034-1.1331.0335-.1508.0738-.2832.1216-.401s.1325-.2759.2541-.4782c.0621-.103.0956-.1729.1023-.2134.0075-.0368,0-.0772-.0252-.1104-.026-.0368-.0813-.0699-.1694-.103l.026-.1141v.0074Z" style="fill:#2b6caf; stroke-width:0px;"/><path d="m79.6358,41.8795l.2021-1.4604.0998.0184-.0109.0809c-.0075.0552.0034.1361.0293.2465.0252.1104.073.2134.1392.3127.0662.0994.1769.2244.3354.3826l1.2462,1.2618.9166.1656c.2239.0404.3673.0367.4336-.0111.0847-.0625.1401-.1802.166-.3495l.0185-.1361.0989.0185-.2465,1.7768-.099-.0184.0218-.1471c.026-.1766-.0034-.3128-.0881-.4047-.052-.0552-.1803-.1031-.3824-.1398l-.8646-.1582-1.6889.8718c-.1979.103-.3237.1729-.3749.2134-.0512.0405-.1216.1287-.2021.2722-.026.0368-.0403.0957-.052.1729l-.0989-.0184.2465-1.7916.099.0185-.0109.0919c-.0143.0957-.0075.1876.0218.2759.0302.0882.0813.1398.1618.1545.0629.0111.192-.0294.3757-.125l1.2982-.6586-1.0114-1.0263c-.1509-.1546-.2683-.2391-.353-.2539-.052-.0111-.0998-.0037-.1401.0221-.0436.0221-.0805.0589-.1099.1104s-.052.1324-.0663.2465l-.0998-.0184-.0109.0036Z" style="fill:#2b6caf; stroke-width:0px;"/></g></svg>